<?xml version="1.0" encoding="utf-8"?>
<!-- Generator: Adobe Illustrator 20.0.0, SVG Export Plug-In . SVG Version: 6.00 Build 0)  -->
<svg version="1.1" id="Topography" xmlns="http://www.w3.org/2000/svg" xmlns:xlink="http://www.w3.org/1999/xlink" x="0px" y="0px"
	 viewBox="0 0 1200 1920" style="enable-background:new 0 0 1200 1920;" xml:space="preserve">
<style type="text/css">
	.st0{clip-path:url(#SVGID_2_);}
	.st1{fill:none;stroke:#666666;stroke-width:1.6067;stroke-miterlimit:10;}
	.st2{clip-path:url(#SVGID_4_);fill:none;stroke:#666666;stroke-width:4.5544;stroke-miterlimit:10;}
	.st3{clip-path:url(#SVGID_6_);}
	.st4{fill:#666666;}
	.st5{fill:#FFFFFF;}
</style>
<g id="Topography_1_">
	<g>
		<g>
			<defs>
				<rect id="SVGID_1_" y="0" width="1200" height="1920.4"/>
			</defs>
			<clipPath id="SVGID_2_">
				<use xlink:href="#SVGID_1_"  style="overflow:visible;"/>
			</clipPath>
			<g class="st0">
				<polygon class="st1" points="1061,830.4 1133.3,902.7 1133.3,931.7 1220.1,1018.4 1220.1,1047.3 1306.8,1134.1 1306.8,1163 
					1408.1,1264.2 1321.3,1351 1220.1,1351 1046.6,1524.5 873,1524.5 583.8,1813.7 511.5,1813.7 468.2,1770.3 395.9,1770.3 
					352.5,1727 280.2,1727 222.3,1669.1 150,1669.1 150,1625.7 135.6,1611.3 106.7,1611.3 106.7,1495.6 179,1423.3 179,1293.2 
					222.3,1249.8 222.3,1148.6 280.2,1090.7 280.2,859.4 309.1,830.4 309.1,758.1 352.5,714.8 352.5,685.8 338,671.4 352.5,656.9 
					352.5,541.2 366.9,526.8 366.9,411.1 352.5,396.6 352.5,295.4 424.8,223.1 526,223.1 612.8,309.9 641.7,309.9 757.4,425.5 
					945.3,425.5 1118.9,252 1162.2,252 1277.9,136.3 1321.3,136.3 1437,20.7 1480.4,20.7 1596.1,-95 1639.4,-51.6 1639.4,20.7 
					1697.3,78.5 1697.3,136.3 1784,223.1 1740.7,266.5 1784,309.9 1856.3,237.6 1899.7,280.9 1870.8,309.9 1928.6,367.7 
					1928.6,396.6 1798.5,526.8 1740.7,526.8 1653.9,613.5 1581.6,613.5 1465.9,729.2 1393.6,729.2 1292.4,830.4 				"/>
				<polygon class="st1" points="1870.8,309.9 1899.7,280.9 1856.3,237.6 1784,309.9 1740.7,266.5 1784,223.1 1697.3,136.3 
					1697.3,78.5 1639.4,20.7 1639.4,-51.6 1596.1,-95 1480.4,20.7 1437,20.7 1321.3,136.3 1277.9,136.3 1162.2,252 1118.9,252 
					945.3,425.5 757.4,425.5 641.7,309.9 612.8,309.9 526,223.1 439.2,223.1 366.9,295.4 366.9,382.2 395.9,411.1 395.9,440 
					424.8,468.9 453.7,468.9 482.6,497.9 468.2,497.9 453.7,483.4 424.8,483.4 410.3,497.9 410.3,526.8 395.9,541.2 395.9,642.5 
					410.3,656.9 410.3,685.8 338,758.1 338,787.1 352.5,801.5 439.2,801.5 424.8,816 366.9,816 352.5,830.4 352.5,844.9 
					366.9,859.4 366.9,960.6 323.6,1004 323.6,1032.9 338,1047.3 381.4,1047.3 410.3,1076.3 395.9,1076.3 381.4,1061.8 
					323.6,1061.8 309.1,1076.3 309.1,1105.2 251.3,1163 251.3,1249.8 193.4,1307.6 193.4,1408.8 106.7,1495.6 106.7,1611.3 
					135.6,1611.3 150,1625.7 150,1669.1 222.3,1669.1 280.2,1727 352.5,1727 395.9,1770.3 468.2,1770.3 511.5,1813.7 583.8,1813.7 
					873,1524.5 1046.6,1524.5 1220.1,1351 1321.3,1351 1408.1,1264.2 1306.8,1163 1306.8,1134.1 1220.1,1047.3 1220.1,1018.4 
					1133.3,931.7 1133.3,902.7 1061,830.4 1292.4,830.4 1393.6,729.2 1465.9,729.2 1581.6,613.5 1653.9,613.5 1740.7,526.8 
					1798.5,526.8 1928.6,396.6 1928.6,367.7 				"/>
				<polygon class="st1" points="1870.8,309.9 1899.7,280.9 1856.3,237.6 1784,309.9 1740.7,266.5 1784,223.1 1697.3,136.3 
					1697.3,78.5 1639.4,20.7 1639.4,-51.6 1596.1,-95 1480.4,20.7 1437,20.7 1321.3,136.3 1277.9,136.3 1162.2,252 1118.9,252 
					945.3,425.5 757.4,425.5 641.7,309.9 612.8,309.9 540.5,237.6 439.2,237.6 395.9,280.9 395.9,382.2 410.3,396.6 410.3,440 
					424.8,454.5 453.7,454.5 497.1,497.9 526,497.9 511.5,512.3 468.2,512.3 453.7,497.9 439.2,497.9 424.8,512.3 424.8,541.2 
					410.3,555.7 410.3,628 424.8,642.5 424.8,656.9 439.2,642.5 468.2,642.5 453.7,656.9 439.2,656.9 424.8,671.4 468.2,671.4 
					453.7,685.8 424.8,685.8 424.8,700.3 352.5,772.6 352.5,787.1 395.9,787.1 424.8,758.1 468.2,758.1 453.7,772.6 424.8,772.6 
					410.3,787.1 439.2,787.1 453.7,801.5 526,801.5 511.5,816 482.6,816 526,859.4 511.5,859.4 482.6,830.4 366.9,830.4 
					366.9,844.9 381.4,859.4 381.4,873.8 410.3,873.8 395.9,888.3 381.4,888.3 381.4,902.7 395.9,917.2 424.8,917.2 410.3,931.7 
					395.9,931.7 381.4,917.2 381.4,975 410.3,975 395.9,989.5 352.5,989.5 338,1004 338,1032.9 381.4,1032.9 439.2,1090.7 
					453.7,1090.7 482.6,1119.6 468.2,1119.6 453.7,1105.2 439.2,1105.2 410.3,1105.2 381.4,1076.3 352.5,1076.3 338,1090.7 
					338,1105.2 352.5,1105.2 381.4,1134.1 366.9,1134.1 352.5,1119.6 338,1119.6 338,1134.1 294.6,1177.5 338,1177.5 323.6,1191.9 
					294.6,1191.9 280.2,1206.4 280.2,1235.3 294.6,1249.8 294.6,1264.2 280.2,1278.7 236.8,1322.1 236.8,1394.4 222.3,1408.8 
					222.3,1437.8 135.6,1524.5 135.6,1567.9 179,1611.3 179,1654.7 207.9,1654.7 280.2,1727 352.5,1727 395.9,1770.3 468.2,1770.3 
					511.5,1813.7 583.8,1813.7 873,1524.5 1046.6,1524.5 1220.1,1351 1321.3,1351 1408.1,1264.2 1306.8,1163 1306.8,1134.1 
					1220.1,1047.3 1220.1,1018.4 1133.3,931.7 1133.3,902.7 1061,830.4 1292.4,830.4 1393.6,729.2 1465.9,729.2 1581.6,613.5 
					1653.9,613.5 1740.7,526.8 1798.5,526.8 1928.6,396.6 1928.6,367.7 				"/>
				<g>
					<polygon class="st1" points="1234.5,1307.6 1205.6,1293.2 1118.9,1293.2 1104.4,1278.7 1104.4,1264.2 1075.5,1235.3 
						1061,1235.3 1003.2,1177.5 974.3,1177.5 945.3,1134.1 945.3,1105.2 959.8,1090.7 1032.1,1090.7 1032.1,1061.8 974.3,1004 
						945.3,1004 930.9,1018.4 916.4,1018.4 902,1004 902,975 887.5,960.6 887.5,931.7 873,917.2 844.1,931.7 844.1,873.8 
						800.7,830.4 800.7,772.6 728.4,700.3 728.4,685.8 771.8,642.5 771.8,613.5 757.4,599.1 714,599.1 685.1,570.2 641.7,570.2 
						627.2,584.6 598.3,584.6 641.7,541.2 641.7,512.3 612.8,483.4 583.8,483.4 554.9,512.3 526,512.3 511.5,526.8 511.5,555.7 
						497.1,555.7 468.2,526.8 439.2,526.8 439.2,555.7 424.8,570.2 424.8,613.5 439.2,628 468.2,628 482.6,642.5 482.6,685.8 
						468.2,700.3 439.2,700.3 366.9,772.6 395.9,772.6 424.8,743.7 453.7,743.7 468.2,729.2 511.5,729.2 526,714.8 526,700.3 
						554.9,671.4 612.8,671.4 641.7,700.3 641.7,714.8 670.6,743.7 598.3,743.7 583.8,729.2 554.9,729.2 540.5,743.7 569.4,743.7 
						598.3,772.6 598.3,787.1 583.8,801.5 554.9,772.6 497.1,772.6 482.6,787.1 526,787.1 540.5,801.5 540.5,830.4 511.5,830.4 
						540.5,859.4 540.5,873.8 511.5,873.8 482.6,844.9 381.4,844.9 395.9,859.4 424.8,859.4 424.8,873.8 395.9,902.7 439.2,902.7 
						439.2,917.2 410.3,946.1 395.9,946.1 395.9,960.6 424.8,960.6 424.8,975 395.9,1004 366.9,1004 352.5,1018.4 381.4,1018.4 
						439.2,1076.3 453.7,1076.3 497.1,1119.6 497.1,1134.1 468.2,1134.1 453.7,1119.6 410.3,1119.6 381.4,1090.7 352.5,1090.7 
						395.9,1134.1 395.9,1148.6 366.9,1148.6 352.5,1134.1 323.6,1163 352.5,1163 352.5,1177.5 323.6,1206.4 294.6,1206.4 
						294.6,1235.3 309.1,1249.8 309.1,1264.2 294.6,1278.7 294.6,1322.1 265.7,1351 265.7,1408.8 150,1524.5 150,1582.4 179,1611.3 
						179,1654.7 207.9,1654.7 280.2,1727 352.5,1727 395.9,1770.3 439.2,1770.3 453.7,1755.9 497.1,1755.9 511.5,1741.4 
						554.9,1741.4 583.8,1712.5 627.2,1712.5 656.1,1741.4 873,1524.5 1046.6,1524.5 1220.1,1351 1263.5,1351 1234.5,1322.1 					
						"/>
					<polygon class="st1" points="1422.5,512.3 1451.5,541.2 1480.4,541.2 1494.8,526.8 1494.8,454.5 1465.9,425.5 1465.9,367.7 
						1422.5,324.3 1422.5,295.4 1321.3,194.2 1249,194.2 1234.5,179.7 1162.2,252 1118.9,252 945.3,425.5 771.8,425.5 771.8,440 
						800.7,468.9 800.7,497.9 844.1,541.2 988.7,541.2 1017.6,512.3 1061,512.3 1089.9,483.4 1089.9,454.5 1118.9,425.5 
						1118.9,396.6 1133.3,382.2 1133.3,353.2 1191.2,411.1 1234.5,411.1 1277.9,454.5 1321.3,454.5 1379.2,512.3 					"/>
					<polygon class="st1" points="1509.3,599.1 1494.8,613.5 1465.9,613.5 1451.5,628 1422.5,628 1408.1,613.5 1379.2,613.5 
						1364.7,628 1364.7,656.9 1350.2,671.4 1350.2,729.2 1335.8,743.7 1335.8,787.1 1392.8,729.2 1465.9,729.2 1567.1,628 
						1538.2,599.1 					"/>
					<polygon class="st1" points="1870.8,309.9 1899.7,280.9 1856.3,237.6 1784,309.9 1740.7,266.5 1784,223.1 1697.3,136.3 
						1697.3,78.5 1639.4,20.7 1639.4,-51.6 1596.1,-95 1480.4,20.7 1437,20.7 1408.1,49.6 1437,49.6 1465.9,78.5 1465.9,107.4 
						1523.8,165.3 1523.8,194.2 1581.6,252 1581.6,295.4 1625,338.8 1625,396.6 1581.6,440 1581.6,497.9 1625,541.2 1625,570.2 
						1668.4,570.2 1682.8,584.6 1740.7,526.8 1798.5,526.8 1928.6,396.6 1928.6,367.7 					"/>
					<polygon class="st1" points="424.8,425.5 439.2,440 453.7,440 468.2,454.5 482.6,454.5 482.6,468.9 497.1,483.4 526,483.4 
						526,454.5 511.5,440 511.5,425.5 526,425.5 554.9,454.5 598.3,454.5 612.8,440 627.2,440 641.7,425.5 641.7,396.6 612.8,367.7 
						627.2,353.2 612.8,338.8 540.5,338.8 540.5,324.3 497.1,280.9 453.7,280.9 424.8,309.9 424.8,338.8 410.3,353.2 410.3,382.2 
						424.8,396.6 					"/>
				</g>
				<g>
					<polygon class="st1" points="583.8,599.1 569.4,613.5 554.9,613.5 583.8,584.6 583.8,570.2 569.4,584.6 554.9,584.6 
						554.9,570.1 583.8,541.2 612.8,541.2 598.3,526.8 583.8,526.8 598.3,512.3 583.8,512.3 569.4,526.8 540.5,526.8 526,541.2 
						526,570.2 497.1,570.2 468.2,541.2 453.7,541.2 453.7,570.2 439.2,584.6 439.2,599.1 453.7,613.5 468.2,613.5 468.2,599.1 
						482.6,599.1 497.1,613.5 511.5,613.5 511.5,628 497.1,642.5 497.1,656.9 511.5,656.9 497.1,671.4 497.1,685.8 511.5,685.8 
						540.5,656.9 540.5,642.5 569.4,642.5 583.8,628 612.8,628 627.2,642.5 627.2,628 612.8,613.5 627.2,599.1 					"/>
					<polygon class="st1" points="656.1,656.9 670.6,671.4 670.6,700.3 685.1,685.8 685.1,671.4 699.5,671.4 685.1,656.9 
						699.5,642.5 670.6,613.5 670.6,628 656.1,628 641.7,642.5 627.2,642.5 641.7,656.9 					"/>
					<polygon class="st1" points="757.4,816 742.9,816 742.9,844.9 714,816 728.4,801.5 714,787.1 685.1,787.1 656.1,816 
						656.1,844.9 670.6,859.4 685.1,859.4 685.1,873.8 670.6,888.3 670.6,902.7 656.1,917.2 670.6,931.7 685.1,917.2 714,917.2 
						742.9,888.3 757.4,888.3 786.3,859.4 771.8,844.9 771.8,830.4 					"/>
					<path class="st1" d="M1104.4,1351l-14.5,14.5h-14.5L1061,1351h-14.5l-28.9-28.9h-14.5l-28.9-28.9v-14.5h14.5l14.5,14.5h28.9
						l-43.4-43.4h-14.5l-14.5-14.5h-43.4l-14.5,14.5v14.5h-14.5l-14.5-14.5h-14.5l-14.5-14.5v-14.5h14.5l-14.5-14.5v-14.5
						l-14.5-14.5h-14.5l-14.5,14.5h-14.5l-14.5,14.5v-28.9l14.5-14.5V1134l14.5-14.5v-28.9l14.5-14.5l14.5,14.5v-28.9l-14.5-14.5
						v-28.9h-14.5l-14.5-14.5V975l-14.5-14.5V946h-28.9L714,975v86.8h-14.5l-14.5-14.5v-14.5l-14.5-14.5h-28.9l-28.9-28.9h-14.5
						v14.5l43.4,43.4l0,0v43.4l28.9,28.9H685l14.5,14.5v28.9H685l-14.5-14.5H656l-14.5,14.5H627v14.5l14.5,14.5v14.5l28.9,28.9H627
						l-28.9-28.9h-28.9l-14.5,14.5H526l-14.5-14.5V1192l-57.8-57.8h-43.4v28.9h-43.4v14.5l-43.4,43.4H309v14.5l14.5,14.5v14.5
						L309,1279v43.4l-28.9,28.9v57.8l-115.7,115.7v28.9l14.5,14.5l28.9-28.9h14.5l57.8-57.8V1467H309l101.2,101.2v14.5l14.5,14.5
						v14.5l14.5,14.5v14.5l14.5,14.5h28.9v14.5l-14.5,14.5h-14.5v14.5h-28.9l-14.5-14.5v-28.9l-28.9-28.9v-14.5l-86.8-86.8h-28.9
						l-28.9,28.9h-14.5l-14.5,14.5h-14.5l28.9,28.9H251l14.5,14.5v14.5H251l-14.5-14.5H222l-28.9-28.9H179l14.5,14.5v43.4l86.8,86.8
						h72.3l43.4,43.4l28.9-28.9h14.5l14.5-14.5h28.9l43.4-43.4v-28.9l28.9-28.9h43.4l43.4-28.9h57.8l14.5,14.5v14.5l14.5,14.5h28.9
						L873,1524.5h173.5l28.9-28.9v-28.9l-14.5-14.5l28.9-28.9l14.5,14.5l14.5-14.5l-28.9-28.9h28.9l14.5,14.5v28.9l43.4-43.4
						l-43.4-43.4L1104.4,1351L1104.4,1351z M829.7,1394.4l-14.5,14.5l14.5,14.5v28.9l-14.5,14.5h-28.9l-14.5,14.5h-14.5l-14.5-14.5
						h-14.5l-14.5,14.5h-28.9l-14.5-14.5h-14.5l-14.5-14.5h-14.5l-28.9-28.9v-14.5v-14.5l-14.5-14.5l14.5-14.5V1351l14.5-14.5H627
						l14.5-14.5H656l14.5-14.5H685l14.5,14.5H714l14.5-14.5h28.9l28.9,28.9h14.5l28.9,28.9L829.7,1394.4L829.7,1394.4z"/>
					<polygon class="st1" points="439.2,411.1 453.7,425.5 468.2,425.5 482.6,440 482.6,411.1 482.6,396.6 526,396.6 540.5,382.2 
						569.4,382.2 583.8,396.6 612.8,396.6 569.4,353.2 526,353.2 526,338.8 497.1,309.9 453.7,309.9 439.2,324.3 439.2,353.2 
						424.8,367.7 424.8,382.2 439.2,396.6 					"/>
					<polygon class="st1" points="439.2,1061.8 453.7,1061.8 511.5,1119.6 569.4,1119.6 583.8,1134.1 627.2,1134.1 627.2,1119.6 
						612.8,1105.2 612.8,1061.8 598.3,1047.3 598.3,1032.9 583.8,1018.4 569.4,1018.4 569.4,1047.3 583.8,1061.8 583.8,1076.3 
						569.4,1061.8 540.5,1061.8 511.5,1032.9 511.5,1004 526,1004 526,989.5 526,960.6 511.5,946.1 511.5,917.2 497.1,902.7 
						497.1,873.8 482.6,859.4 439.2,859.4 439.2,873.8 424.8,888.3 439.2,888.3 453.7,902.7 453.7,917.2 439.2,931.7 424.8,946.1 
						439.2,960.6 439.2,975 410.3,1004 395.9,1018.4 410.3,1032.9 					"/>
					<polygon class="st1" points="685.1,714.8 670.6,714.8 714,758.1 757.4,758.1 742.9,743.7 728.4,743.7 714,729.2 699.5,729.2 
											"/>
					<polygon class="st1" points="627.2,931.7 612.8,946.1 627.2,946.1 641.7,960.6 670.6,960.6 641.7,931.7 					"/>
					<polygon class="st1" points="569.4,975 554.9,975 554.9,989.5 569.4,1004 583.8,1004 583.8,989.5 583.8,975 569.4,960.6 					
						"/>
					<polygon class="st1" points="641.7,1625.7 641.7,1640.2 670.6,1669.1 685.1,1669.1 670.6,1654.7 699.5,1654.7 699.5,1640.2 
						685.1,1625.7 					"/>
					<polygon class="st1" points="1437,468.9 1437,440 1379.2,382.2 1379.2,367.7 1350.2,338.8 1350.2,324.3 1321.3,295.4 
						1321.3,266.5 1277.9,223.1 1249,223.1 1220.1,194.2 1162.2,252 1118.9,252 1133.3,266.5 1133.3,280.9 1176.7,324.3 
						1191.2,324.3 1234.5,367.7 1249,367.7 1292.4,411.1 1321.3,411.1 1350.2,440 1364.7,440 1393.6,468.9 					"/>
					<polygon class="st1" points="844.1,497.9 858.6,512.3 974.3,512.3 988.7,497.9 1003.2,497.9 1032.1,468.9 1032.1,440 
						1046.6,425.5 1046.6,396.6 1061,382.2 1061,309.9 945.3,425.5 800.7,425.5 844.1,468.9 					"/>
					<polygon class="st1" points="1870.8,309.9 1885.3,295.4 1856.3,295.4 1856.3,338.8 1841.9,353.2 1870.8,382.2 1841.9,382.2 
						1827.4,367.7 1784,367.7 1755.1,396.6 1784,396.6 1784,425.5 1769.6,440 1726.2,440 1697.3,468.9 1740.7,468.9 1755.1,483.4 
						1784,483.4 1813,512.3 1928.6,396.6 1928.6,367.7 					"/>
					<polygon class="st1" points="1740.7,497.9 1726.2,497.9 1711.7,483.4 1682.8,483.4 1668.4,497.9 1682.8,512.3 1697.3,512.3 
						1682.8,526.8 1668.4,526.8 1697.3,555.7 1711.7,555.7 1740.7,526.8 1755.1,526.8 1740.7,512.3 					"/>
					<polygon class="st1" points="1494.8,642.5 1480.4,656.9 1451.5,656.9 1437,671.4 1408.1,671.4 1393.6,685.8 1393.6,700.3 
						1379.2,714.8 1379.2,743.7 1392.8,729.2 1465.9,729.2 1538.2,656.9 1523.8,642.5 					"/>
				</g>
				<path class="st1" d="M974.3,425.5"/>
				<g>
					<polygon class="st1" points="497.1,584.6 511.5,599.1 526,599.1 540.5,584.6 540.5,570.2 526,584.6 					"/>
					<polygon class="st1" points="468.2,570.2 453.7,584.6 453.7,599.1 468.2,584.6 482.6,584.6 482.6,570.2 468.2,555.7 					"/>
					<polygon class="st1" points="468.2,382.2 526,382.2 540.5,367.7 511.5,367.7 497.1,353.2 497.1,338.8 482.6,324.3 468.2,324.3 
						453.7,338.8 453.7,353.2 439.2,367.7 439.2,382.2 468.2,411.1 					"/>
					<polygon class="st1" points="468.2,960.6 482.6,960.6 482.6,946.1 468.2,931.7 468.2,917.2 439.2,946.1 468.2,975 					"/>
					<polygon class="st1" points="453.7,1047.3 497.1,1090.7 511.5,1090.7 526,1105.2 540.5,1105.2 540.5,1090.7 497.1,1047.3 
						482.6,1047.3 482.6,1018.4 468.2,1004 468.2,989.5 453.7,989.5 453.7,975 410.3,1018.4 439.2,1047.3 					"/>
					<polygon class="st1" points="468.2,1307.6 497.1,1307.6 511.5,1322.1 569.4,1322.1 569.4,1307.6 554.9,1293.2 540.5,1293.2 
						526,1278.7 511.5,1278.7 497.1,1264.2 482.6,1264.2 482.6,1278.7 453.7,1278.7 468.2,1264.2 468.2,1249.8 482.6,1235.3 
						482.6,1206.4 468.2,1191.9 468.2,1163 453.7,1148.6 424.8,1148.6 424.8,1163 410.3,1177.5 381.4,1177.5 323.6,1235.3 
						338,1249.8 338,1264.2 323.6,1278.7 323.6,1322.1 294.6,1351 294.6,1408.8 179,1524.5 179,1553.4 207.9,1524.5 222.3,1524.5 
						251.3,1495.6 251.3,1466.7 280.2,1437.8 280.2,1452.2 323.6,1452.2 424.8,1553.4 424.8,1582.4 468.2,1582.4 497.1,1611.3 
						569.4,1611.3 554.9,1596.8 554.9,1553.4 511.5,1510.1 511.5,1466.7 468.2,1423.3 468.2,1351 453.7,1336.5 453.7,1322.1 					
						"/>
					<polygon class="st1" points="395.9,1669.1 381.4,1669.1 366.9,1683.6 366.9,1654.7 338,1625.7 338,1654.7 309.1,1625.7 
						338,1596.8 338,1582.4 323.6,1567.9 309.1,1582.4 294.6,1582.4 280.2,1596.8 280.2,1625.7 294.6,1625.7 294.6,1640.2 
						323.6,1669.1 294.6,1669.1 280.2,1654.7 280.2,1698 294.6,1712.5 280.2,1712.5 265.7,1698 265.7,1669.1 251.3,1683.6 
						236.8,1669.1 236.8,1654.7 222.3,1640.2 222.3,1625.7 207.9,1611.3 207.9,1654.7 280.2,1727 352.5,1727 381.4,1755.9 
						395.9,1755.9 410.3,1741.4 410.3,1712.5 395.9,1698 					"/>
					<polygon class="st1" points="294.6,1567.9 309.1,1553.4 294.6,1539 265.7,1539 236.8,1567.9 222.3,1567.9 236.8,1582.4 
						265.7,1582.4 280.2,1567.9 					"/>
					<polygon class="st1" points="251.3,1654.7 265.7,1654.7 280.2,1640.2 236.8,1640.2 					"/>
					<polygon class="st1" points="742.9,1105.2 757.4,1119.6 771.8,1119.6 757.4,1105.2 					"/>
					<polygon class="st1" points="974.3,1466.7 974.3,1452.2 959.8,1466.7 					"/>
					<polygon class="st1" points="742.9,1177.5 757.4,1191.9 757.4,1163 742.9,1148.6 728.4,1163 728.4,1177.5 728.4,1235.3 
						714,1249.8 714,1264.2 742.9,1293.2 742.9,1278.7 728.4,1264.2 728.4,1249.8 742.9,1235.3 742.9,1249.8 771.8,1278.7 
						771.8,1249.8 742.9,1220.9 					"/>
					<polygon class="st1" points="873,1322.1 873,1307.6 844.1,1307.6 829.7,1293.2 815.2,1293.2 786.3,1264.2 786.3,1293.2 
						800.7,1307.6 829.7,1307.6 844.1,1322.1 858.6,1322.1 873,1336.5 873,1351 887.5,1351 887.5,1379.9 902,1394.4 902,1336.5 
						887.5,1322.1 					"/>
					<polygon class="st1" points="714,1191.9 699.5,1206.4 699.5,1249.8 714,1235.3 					"/>
					<polygon class="st1" points="959.8,1394.4 959.8,1379.9 945.3,1394.4 945.3,1408.8 930.9,1423.3 945.3,1423.3 959.8,1423.3 
						945.3,1437.8 959.8,1437.8 974.3,1423.3 974.3,1408.8 					"/>
				</g>
				<g>
					<polygon class="st1" points="453.7,1524.5 453.7,1510.1 424.8,1481.1 424.8,1452.2 395.9,1423.3 395.9,1408.8 410.3,1394.4 
						410.3,1351 395.9,1336.5 395.9,1293.2 410.3,1278.7 410.3,1264.2 424.8,1249.8 439.2,1249.8 453.7,1235.3 453.7,1206.4 
						424.8,1177.5 410.3,1191.9 381.4,1191.9 352.5,1220.9 338,1235.3 352.5,1249.8 352.5,1264.2 338,1278.7 338,1322.1 309.1,1351 
						309.1,1408.8 294.6,1423.3 294.6,1437.8 323.6,1437.8 439.2,1553.4 439.2,1567.9 468.2,1567.9 482.6,1582.4 497.1,1582.4 
						497.1,1567.9 					"/>
					<polygon class="st1" points="453.7,1032.9 453.7,1018.4 439.2,1018.4 439.2,1004 424.8,1018.4 439.2,1032.9 					"/>
					<polygon class="st1" points="395.9,1712.5 381.4,1698 366.9,1698 352.5,1683.6 294.6,1683.6 294.6,1698 309.1,1712.5 
						294.6,1727 352.5,1727 366.9,1741.4 381.4,1741.4 366.9,1727 366.9,1712.5 					"/>
					<polygon class="st1" points="251.3,1567.9 265.7,1567.9 280.2,1553.4 265.7,1553.4 					"/>
					<polygon class="st1" points="236.8,1495.6 236.8,1481.1 222.3,1495.6 					"/>
					<polygon class="st1" points="468.2,1032.9 453.7,1032.9 468.2,1047.3 					"/>
					<polygon class="st1" points="222.3,1510.1 222.3,1495.6 207.9,1510.1 					"/>
				</g>
				<g>
					<polygon class="st1" points="395.9,1466.7 366.9,1437.8 366.9,1423.3 352.5,1408.8 352.5,1379.9 366.9,1365.5 366.9,1293.2 
						381.4,1278.7 381.4,1249.8 366.9,1235.3 366.9,1235.3 381.4,1220.9 395.9,1220.9 410.3,1206.4 381.4,1206.4 352.5,1235.3 
						366.9,1249.8 366.9,1264.2 352.5,1278.7 352.5,1322.1 323.6,1351 323.6,1408.8 309.1,1423.3 323.6,1423.3 410.3,1510.1 
						410.3,1495.6 395.9,1481.1 					"/>
					<polygon class="st1" points="309.1,1698 323.6,1712.5 338,1712.5 323.6,1698 					"/>
				</g>
				<path class="st1" d="M887.5,1379.9"/>
			</g>
		</g>
		<g>
			<defs>
				<rect id="SVGID_3_" y="0" width="1200" height="1920.4"/>
			</defs>
			<clipPath id="SVGID_4_">
				<use xlink:href="#SVGID_3_"  style="overflow:visible;"/>
			</clipPath>
			<polygon class="st2" points="1061,830.4 1133.3,902.7 1133.3,931.7 1220.1,1018.4 1220.1,1047.3 1306.8,1134.1 1306.8,1163 
				1408.1,1264.2 1321.3,1351 1220.1,1351 1046.6,1524.5 873,1524.5 583.8,1813.7 511.5,1813.7 468.2,1770.3 395.9,1770.3 
				352.5,1727 280.2,1727 222.3,1669.1 150,1669.1 150,1625.7 135.6,1611.3 106.7,1611.3 106.7,1495.6 179,1423.3 179,1293.2 
				222.3,1249.8 222.3,1148.6 280.2,1090.7 280.2,859.4 309.1,830.4 309.1,758.1 352.5,714.8 352.5,685.8 338,671.4 352.5,656.9 
				352.5,541.2 366.9,526.8 366.9,411.1 352.5,396.6 352.5,295.4 424.8,223.1 526,223.1 612.8,309.9 641.7,309.9 757.4,425.5 
				945.3,425.5 1118.9,252 1162.2,252 1277.9,136.3 1321.3,136.3 1437,20.7 1480.4,20.7 1596.1,-95 1639.4,-51.6 1639.4,20.7 
				1697.3,78.5 1697.3,136.3 1784,223.1 1740.7,266.5 1784,309.9 1856.3,237.6 1899.7,280.9 1870.8,309.9 1928.6,367.7 
				1928.6,396.6 1798.5,526.8 1740.7,526.8 1653.9,613.5 1581.6,613.5 1465.9,729.2 1393.6,729.2 1292.4,830.4 			"/>
		</g>
		<g>
			<defs>
				<rect id="SVGID_5_" y="0" width="1200" height="1920.4"/>
			</defs>
			<clipPath id="SVGID_6_">
				<use xlink:href="#SVGID_5_"  style="overflow:visible;"/>
			</clipPath>
			<g class="st3">
				<g>
					<polygon class="st4" points="309.1,758.1 352.5,714.8 352.5,685.8 323.6,656.9 309.1,656.9 265.7,700.3 265.7,714.8 
						251.3,729.2 251.3,873.8 265.7,888.3 280.2,888.3 309.1,859.4 309.1,888.3 323.6,902.7 323.6,931.7 338,917.2 338,859.4 
						309.1,830.4 					"/>
					<polygon class="st4" points="294.6,902.7 294.6,888.3 265.7,917.2 251.3,931.7 251.3,960.6 265.7,975 265.7,1018.4 280.2,1004 
						280.2,989.5 309.1,960.6 309.1,946.1 280.2,917.2 					"/>
				</g>
				<polygon class="st4" points="121.1,1727 150,1698 150,1669.1 150,1625.7 135.6,1611.3 106.7,1611.3 77.7,1640.2 63.3,1640.2 
					-23.5,1727 -23.5,1755.9 -37.9,1770.3 -37.9,1784.8 106.7,1784.8 121.1,1770.3 				"/>
				<polygon class="st4" points="338,93 381.4,49.6 395.9,49.6 424.8,78.5 424.8,150.8 395.9,179.7 366.9,179.7 366.9,150.8 
					338,121.9 				"/>
				<polygon class="st4" points="757.4,1379.9 742.9,1365.5 728.4,1365.5 714,1351 670.6,1351 656.1,1365.5 641.7,1365.5 
					627.2,1379.9 627.2,1394.4 641.7,1379.9 714,1379.9 714,1365.5 728.4,1379.9 				"/>
				<polygon class="st4" points="974.3,671.4 945.3,671.4 959.8,685.8 959.8,700.3 930.9,700.3 945.3,714.8 974.3,714.8 
					988.7,700.3 988.7,685.8 				"/>
			</g>
		</g>
	</g>
</g>
<g>
	<g>
		<g>
			<path class="st5" d="M570.6,628.2h-6.5l-1.1,3.6h-2.3l5.4-16.6h2.5l5.6,16.6h-2.4L570.6,628.2z M570.1,626.3l-2.8-8.6l-2.6,8.6
				H570.1z"/>
			<path class="st5" d="M578.9,620.1v11.7h-1.8v-16.4h1.8l4.4,12.3l4.4-12.3h1.7v16.4h-1.9v-11.7l-4.2,11.7H583L578.9,620.1z"/>
			<path class="st5" d="M594.6,620.1v11.7h-1.8v-16.4h1.8l4.4,12.3l4.4-12.3h1.7v16.4h-1.9v-11.7l-4.2,11.7h-0.3L594.6,620.1z"/>
			<path class="st5" d="M617.9,628.2h-6.5l-1.1,3.6H608l5.4-16.6h2.5l5.6,16.6h-2.4L617.9,628.2z M617.3,626.3l-2.8-8.6l-2.6,8.6
				H617.3z"/>
			<path class="st5" d="M627.3,620.1v11.7h-2v-16.4h1.4l6.7,11.6v-11.6h2v16.4h-1.3L627.3,620.1z"/>
		</g>
		<circle class="st5" cx="545.5" cy="624.9" r="8.4"/>
	</g>
	<g>
		<g>
			<path class="st5" d="M475.1,560.3l-0.2-2.2c1.5,0.9,3.2,1.5,5,1.5c2.2,0,3.6-1,3.6-2.9c0-1.4-0.7-2.2-3.3-3l-0.7-0.2
				c-2.8-0.9-4-2-4-4.4c0-2.9,1.9-4.6,5.4-4.6c1.6,0,3.1,0.5,4.1,1l0.2,2.1c-1.3-0.7-2.9-1.1-4.3-1.1c-2.2,0-3.3,1.1-3.3,2.7
				c0,1.3,0.7,2.1,2.9,2.8l0.6,0.2c3.4,1.1,4.5,2.2,4.5,4.6c0,3.1-2.2,4.8-5.8,4.8C477.9,561.5,476.1,561,475.1,560.3z"/>
			<path class="st5" d="M499.2,557.7h-6.5l-1.1,3.6h-2.3l5.4-16.6h2.5l5.6,16.6h-2.4L499.2,557.7z M498.6,555.8l-2.8-8.6l-2.6,8.6
				H498.6z"/>
			<path class="st5" d="M507,544.8h2.1v14.6h8.1v1.9H507V544.8z"/>
			<path class="st5" d="M528.5,546.7v14.6h-2.1v-14.6h-5v-1.9h12.1v1.9H528.5z"/>
		</g>
		<circle class="st5" cx="458.2" cy="554.4" r="8.4"/>
	</g>
	<g>
		<g>
			<path class="st5" d="M485.1,1002.7l-2.4,2.9v4.7h-2.1v-16.4h2.1v9l7.2-9h2.4l-5.7,7l6.4,9.4h-2.6L485.1,1002.7z"/>
			<path class="st5" d="M504.8,1006.6h-6.5l-1.1,3.6h-2.3l5.4-16.6h2.5l5.6,16.6H506L504.8,1006.6z M504.2,1004.8l-2.8-8.6l-2.6,8.6
				H504.2z"/>
			<path class="st5" d="M514.4,1010.3h-2.1v-16.4h4.4c3.4,0,5.9,2,5.9,5.7c0,2.3-1,4.1-2.7,5.1l4,5.6h-2.7l-3.6-4.9
				c-0.2,0-0.5,0-0.8,0h-2.5V1010.3z M516.3,1003.5c2.8,0,4.1-1.4,4.1-3.8c0-2.5-1.4-4-4.1-4h-1.9v7.8H516.3z"/>
			<path class="st5" d="M536.3,1006.6h-6.5l-1.1,3.6h-2.3l5.4-16.6h2.5l5.6,16.6h-2.4L536.3,1006.6z M535.7,1004.8l-2.8-8.6
				l-2.6,8.6H535.7z"/>
			<path class="st5" d="M548.1,1002.7l-2.4,2.9v4.7h-2.1v-16.4h2.1v9l7.2-9h2.4l-5.7,7l6.4,9.4h-2.6L548.1,1002.7z"/>
		</g>
		<circle class="st5" cx="463.9" cy="1003.4" r="8.4"/>
	</g>
	<g>
		<g>
			<path class="st5" d="M433.7,1145.7v14.6h-2.1v-14.6h-5v-1.9h12.1v1.9H433.7z"/>
			<path class="st5" d="M451.7,1156.6h-6.5l-1.1,3.6h-2.3l5.4-16.6h2.5l5.6,16.6h-2.4L451.7,1156.6z M451.1,1154.8l-2.8-8.6
				l-2.6,8.6H451.1z"/>
			<path class="st5" d="M459.6,1143.8h9.5v1.9h-7.4v6.5h6.6v1.9h-6.6v6.2h-2.1V1143.8z"/>
			<path class="st5" d="M474.7,1143.8h10.4v1.7h-4.2v13.1h4.2v1.7h-10.4v-1.7h4.1v-13.1h-4.1V1143.8z"/>
			<path class="st5" d="M491,1143.8h2.1v14.6h8.1v1.9H491V1143.8z"/>
			<path class="st5" d="M514.7,1156.6h-6.5l-1.1,3.6h-2.3l5.4-16.6h2.5l5.6,16.6h-2.4L514.7,1156.6z M514.1,1154.8l-2.8-8.6
				l-2.6,8.6H514.1z"/>
			<path class="st5" d="M530.5,1153.2h-6.6v7.1h-2.1v-16.4h2.1v7.5h6.6v-7.5h2.1v16.4h-2.1V1153.2z"/>
		</g>
		<circle class="st5" cx="410.8" cy="1153.3" r="8.4"/>
	</g>
	<g>
		<g>
			<path class="st5" d="M443,1237.3l-0.2-2.2c1.5,0.9,3.2,1.5,5,1.5c2.2,0,3.6-1,3.6-2.9c0-1.4-0.7-2.2-3.3-3l-0.7-0.2
				c-2.8-0.9-4-2-4-4.4c0-2.9,1.9-4.6,5.4-4.6c1.6,0,3.1,0.5,4.1,1l0.2,2.1c-1.3-0.7-2.9-1.1-4.3-1.1c-2.2,0-3.3,1.1-3.3,2.7
				c0,1.3,0.7,2.1,2.9,2.8l0.6,0.2c3.4,1.1,4.5,2.2,4.5,4.6c0,3.1-2.2,4.8-5.8,4.8C445.8,1238.5,444,1237.9,443,1237.3z"/>
			<path class="st5" d="M467.1,1231.2h-6.6v7.1h-2.1v-16.4h2.1v7.5h6.6v-7.5h2.1v16.4h-2.1V1231.2z"/>
			<path class="st5" d="M473.4,1230.1c0-5.4,2.5-8.6,6.3-8.6c3.8,0,6,3.2,6,8.6c0,5.7-2.7,8.5-6.3,8.5
				C475.7,1238.6,473.4,1235.6,473.4,1230.1z M483.6,1230c0-4-1.5-6.6-4-6.6c-2.3,0-4,2.3-4,6.6c0,4.4,1.6,6.6,4,6.6
				C481.9,1236.6,483.6,1234.4,483.6,1230z"/>
			<path class="st5" d="M495.3,1238.2h-5v-16.4h4.5c3.4,0,5.3,1.4,5.3,4.2c0,1.7-0.6,3.1-2.8,3.8c2.7,0.5,3.6,1.9,3.6,4
				C501,1236.9,498.8,1238.2,495.3,1238.2z M494.5,1229.1c2.4,0,3.6-0.8,3.6-2.7c0-2-1.2-2.8-3.6-2.8h-2v5.6H494.5z M495,1236.5
				c2.6,0,3.7-0.8,3.7-2.9c0-1.9-1.3-2.7-3.8-2.7h-2.5v5.6H495z"/>
			<path class="st5" d="M514.3,1234.6h-6.5l-1.1,3.6h-2.3l5.4-16.6h2.5l5.6,16.6h-2.4L514.3,1234.6z M513.8,1232.8l-2.8-8.6
				l-2.6,8.6H513.8z"/>
			<path class="st5" d="M526.1,1230.7l-2.4,2.9v4.7h-2.1v-16.4h2.1v9l7.2-9h2.4l-5.7,7l6.4,9.4h-2.6L526.1,1230.7z"/>
		</g>
		<circle class="st5" cx="426.2" cy="1231.3" r="8.4"/>
	</g>
	<g>
		<g>
			<path class="st5" d="M494.1,1357.7h-6.5l-1.1,3.6h-2.3l5.4-16.6h2.5l5.6,16.6h-2.4L494.1,1357.7z M493.5,1355.8l-2.8-8.6
				l-2.6,8.6H493.5z"/>
			<path class="st5" d="M501.1,1343.9h6.6v15.8h4.5v1.7h-11.1v-1.7h4.5v-14.1h-4.5V1343.9z"/>
			<path class="st5" d="M518,1353.6h8.6v1.9H518V1353.6z"/>
			<path class="st5" d="M534,1344.9h8v8.3c0,6.3-2.3,8.3-6.8,8.3c-0.7,0-1.3-0.1-2-0.3l-0.2-2c0.7,0.2,1.3,0.3,1.9,0.3
				c3.9,0,5-2,5-6.5v-6.2H534V1344.9z"/>
			<path class="st5" d="M557.1,1357.7h-6.5l-1.1,3.6h-2.3l5.4-16.6h2.5l5.6,16.6h-2.4L557.1,1357.7z M556.5,1355.8l-2.8-8.6
				l-2.6,8.6H556.5z"/>
			<path class="st5" d="M564.9,1344.9h9.5v1.9h-7.4v6.5h6.6v1.9h-6.6v6.2h-2.1V1344.9z"/>
			<path class="st5" d="M588.6,1357.7H582l-1.1,3.6h-2.3l5.4-16.6h2.5l5.6,16.6h-2.4L588.6,1357.7z M588,1355.8l-2.8-8.6l-2.6,8.6
				H588z"/>
			<path class="st5" d="M598.2,1361.3h-2.1v-16.4h4.4c3.4,0,5.9,2,5.9,5.7c0,2.3-1,4.1-2.7,5.1l4,5.6H605l-3.6-4.9
				c-0.2,0-0.5,0-0.8,0h-2.5V1361.3z M600.1,1354.6c2.8,0,4.1-1.4,4.1-3.8c0-2.5-1.4-4-4.1-4h-1.9v7.8H600.1z"/>
		</g>
		<circle class="st5" cx="626.9" cy="1354.4" r="8.4"/>
	</g>
	<g>
		<g>
			<path class="st5" d="M182.2,1597.9h-6.5l-1.1,3.6h-2.3l5.4-16.6h2.5l5.6,16.6h-2.4L182.2,1597.9z M181.6,1596l-2.8-8.6l-2.6,8.6
				H181.6z"/>
			<path class="st5" d="M198.8,1600l3.3,4.9h-2.5l-2.5-3.6c-0.8,0.4-1.6,0.6-2.5,0.6c-3.7,0-6-2.9-6-8.5c0-5.4,2.5-8.6,6.3-8.6
				c3.8,0,6,3.2,6,8.6C200.9,1596.4,200.1,1598.6,198.8,1600z M194.7,1599.9c0.4,0,0.9-0.1,1.3-0.3l-2.8-4h2.5l1.8,2.7
				c0.7-1.1,1.2-2.7,1.2-4.9c0-4-1.5-6.6-4-6.6c-2.3,0-4,2.3-4,6.6C190.7,1597.7,192.3,1599.9,194.7,1599.9z"/>
			<path class="st5" d="M213.7,1597.9h-6.5l-1.1,3.6h-2.3l5.4-16.6h2.5l5.6,16.6h-2.4L213.7,1597.9z M213.1,1596l-2.8-8.6l-2.6,8.6
				H213.1z"/>
			<path class="st5" d="M226.2,1601.5h-5v-16.4h4.5c3.4,0,5.3,1.4,5.3,4.2c0,1.7-0.6,3.1-2.8,3.8c2.7,0.5,3.6,1.9,3.6,4
				C231.9,1600.2,229.7,1601.5,226.2,1601.5z M225.4,1592.4c2.4,0,3.6-0.8,3.6-2.7c0-2-1.2-2.8-3.6-2.8h-2v5.6H225.4z M225.9,1599.7
				c2.6,0,3.7-0.8,3.7-2.9c0-1.9-1.3-2.7-3.8-2.7h-2.5v5.6H225.9z"/>
			<path class="st5" d="M245.2,1597.9h-6.5l-1.1,3.6h-2.3l5.4-16.6h2.5l5.6,16.6h-2.4L245.2,1597.9z M244.6,1596l-2.8-8.6l-2.6,8.6
				H244.6z"/>
		</g>
		<circle class="st5" cx="157" cy="1594.6" r="8.4"/>
	</g>
	<g>
		<g>
			<path class="st5" d="M464.5,1407.9v11.7h-1.8v-16.4h1.8l4.4,12.3l4.4-12.3h1.7v16.4h-1.9v-11.7l-4.2,11.7h-0.3L464.5,1407.9z"/>
			<path class="st5" d="M487.8,1416h-6.5l-1.1,3.6h-2.3l5.4-16.6h2.5l5.6,16.6H489L487.8,1416z M487.2,1414.1l-2.8-8.6l-2.6,8.6
				H487.2z"/>
			<path class="st5" d="M503.5,1416H497l-1.1,3.6h-2.3l5.4-16.6h2.5l5.6,16.6h-2.4L503.5,1416z M502.9,1414.1l-2.8-8.6l-2.6,8.6
				H502.9z"/>
			<path class="st5" d="M512.9,1407.9v11.7h-2v-16.4h1.4l6.7,11.6v-11.6h2v16.4h-1.3L512.9,1407.9z"/>
		</g>
		<circle class="st5" cx="446.9" cy="1412.7" r="8.4"/>
	</g>
	<g>
		<g>
			<path class="st5" d="M504,288.2h10.4v1.7h-4.2V303h4.2v1.7H504V303h4.1v-13.1H504V288.2z"/>
			<path class="st5" d="M522.1,304.6H520v-16.4h4.4c3.4,0,5.9,2,5.9,5.7c0,2.3-1,4.1-2.7,5.1l4,5.6H529l-3.6-4.9c-0.2,0-0.5,0-0.8,0
				h-2.5V304.6z M524,297.9c2.8,0,4.1-1.4,4.1-3.8c0-2.5-1.4-4-4.1-4h-1.9v7.8H524z"/>
			<path class="st5" d="M540.7,304.6h-5v-16.4h4.5c3.4,0,5.3,1.4,5.3,4.2c0,1.7-0.6,3.1-2.8,3.8c2.7,0.5,3.6,1.9,3.6,4
				C546.4,303.3,544.2,304.6,540.7,304.6z M539.9,295.5c2.4,0,3.6-0.8,3.6-2.7c0-2-1.2-2.8-3.6-2.8h-2v5.6H539.9z M540.5,302.9
				c2.6,0,3.7-0.8,3.7-2.9c0-1.9-1.3-2.7-3.8-2.7h-2.5v5.6H540.5z"/>
			<path class="st5" d="M551.3,288.2h10.4v1.7h-4.2V303h4.2v1.7h-10.4V303h4.1v-13.1h-4.1V288.2z"/>
			<path class="st5" d="M567,288.2h4.6c5,0,6.9,3.2,6.9,8.1c0,5.1-2.2,8.3-6.9,8.3H567V288.2z M571.2,302.7c3.5,0,5-2.2,5-6.4
				c0-4-1.3-6.2-5-6.2h-2.1v12.7H571.2z"/>
		</g>
		<circle class="st5" cx="487.3" cy="297.7" r="8.4"/>
	</g>
	<g>
		<g>
			<path class="st5" d="M551.1,1752.3h-6.5l-1.1,3.6h-2.3l5.4-16.6h2.5l5.6,16.6h-2.4L551.1,1752.3z M550.5,1750.5l-2.8-8.6
				l-2.6,8.6H550.5z"/>
			<path class="st5" d="M558.1,1738.5h6.6v15.8h4.5v1.7h-11.1v-1.7h4.5v-14.1h-4.5V1738.5z"/>
			<path class="st5" d="M575.1,1748.2h8.6v1.9h-8.6V1748.2z"/>
			<path class="st5" d="M590.8,1744.3v11.7h-1.8v-16.4h1.8l4.4,12.3l4.4-12.3h1.7v16.4h-1.9v-11.7l-4.2,11.7H595L590.8,1744.3z"/>
			<path class="st5" d="M605.3,1749.8v-10.3h2.1v10.3c0,3.5,1.3,4.5,3.4,4.5s3.4-1.1,3.4-4.7v-10.1h2.1v10c0,4.8-2.2,6.7-5.6,6.7
				C607.4,1756.2,605.3,1754.7,605.3,1749.8z"/>
			<path class="st5" d="M621.4,1739.5h4.6c5,0,6.9,3.2,6.9,8.1c0,5.1-2.2,8.3-6.9,8.3h-4.5V1739.5z M625.6,1754.1c3.5,0,5-2.2,5-6.4
				c0-4-1.3-6.2-5-6.2h-2.1v12.7H625.6z"/>
			<path class="st5" d="M645.6,1752.3h-6.5l-1.1,3.6h-2.3l5.4-16.6h2.5l5.6,16.6h-2.4L645.6,1752.3z M645,1750.5l-2.8-8.6l-2.6,8.6
				H645z"/>
			<path class="st5" d="M658.2,1743.4l-3.2,12.5h-2l-2.1-16.4h1.9l1.6,12.8l3.3-12.8h1.3l3.2,12.8l1.5-12.8h1.8l-2.1,16.4h-2
				L658.2,1743.4z"/>
			<path class="st5" d="M673.9,1743.4l-3.2,12.5h-2l-2.1-16.4h1.9l1.6,12.8l3.3-12.8h1.3l3.2,12.8l1.5-12.8h1.8l-2.1,16.4h-2
				L673.9,1743.4z"/>
			<path class="st5" d="M692.8,1752.3h-6.5l-1.1,3.6h-2.3l5.4-16.6h2.5l5.6,16.6H694L692.8,1752.3z M692.2,1750.5l-2.8-8.6l-2.6,8.6
				H692.2z"/>
			<path class="st5" d="M702.5,1755.9h-2.1v-16.4h4.4c3.4,0,5.9,2,5.9,5.7c0,2.3-1,4.1-2.7,5.1l4,5.6h-2.7l-3.6-4.9
				c-0.2,0-0.5,0-0.8,0h-2.5V1755.9z M704.3,1749.2c2.8,0,4.1-1.4,4.1-3.8c0-2.5-1.4-4-4.1-4h-1.9v7.8H704.3z"/>
			<path class="st5" d="M724.3,1752.3h-6.5l-1.1,3.6h-2.3l5.4-16.6h2.5l5.6,16.6h-2.4L724.3,1752.3z M723.7,1750.5l-2.8-8.6
				l-2.6,8.6H723.7z"/>
		</g>
		<circle class="st5" cx="526" cy="1749" r="8.4"/>
	</g>
	<g>
		<g>
			<path class="st5" d="M706.8,542h-12.2v-0.3l8.8-14.2h-8.1v-1.9h11.3v0.3l-8.9,14.2h9V542z"/>
			<path class="st5" d="M719.9,538.4h-6.5l-1.1,3.6H710l5.4-16.6h2.5l5.6,16.6H721L719.9,538.4z M719.3,536.5l-2.8-8.6l-2.6,8.6
				H719.3z"/>
			<path class="st5" d="M729.5,542h-2.1v-16.4h4.4c3.4,0,5.9,2,5.9,5.7c0,2.3-1,4.1-2.7,5.1l4,5.6h-2.7l-3.6-4.9c-0.2,0-0.5,0-0.8,0
				h-2.5V542z M731.4,535.3c2.8,0,4.1-1.4,4.1-3.8c0-2.5-1.4-4-4.1-4h-1.9v7.8H731.4z"/>
			<path class="st5" d="M752.2,540.5l3.3,4.9H753l-2.5-3.6c-0.8,0.4-1.6,0.6-2.5,0.6c-3.7,0-6-2.9-6-8.5c0-5.4,2.5-8.6,6.3-8.6
				s6,3.2,6,8.6C754.3,536.9,753.5,539.1,752.2,540.5z M748.1,540.4c0.4,0,0.9-0.1,1.3-0.3l-2.8-4h2.5l1.8,2.7
				c0.7-1.1,1.2-2.7,1.2-4.9c0-4-1.5-6.6-4-6.6c-2.3,0-4,2.3-4,6.6C744.1,538.2,745.7,540.4,748.1,540.4z"/>
			<path class="st5" d="M767.1,538.4h-6.5l-1.1,3.6h-2.3l5.4-16.6h2.5l5.6,16.6h-2.4L767.1,538.4z M766.5,536.5l-2.8-8.6l-2.6,8.6
				H766.5z"/>
		</g>
		<circle class="st5" cx="679" cy="535.1" r="8.4"/>
	</g>
	<g>
		<g>
			<path class="st5" d="M842.7,672.1h-6.5l-1.1,3.6h-2.3l5.4-16.6h2.5l5.6,16.6h-2.4L842.7,672.1z M842.1,670.2l-2.8-8.6l-2.6,8.6
				H842.1z"/>
			<path class="st5" d="M861.1,675.7H849v-0.3l8.8-14.2h-8.1v-1.9h11.3v0.3l-8.9,14.2h9V675.7z"/>
			<path class="st5" d="M868.1,675.7h-2.1v-16.4h4.4c3.4,0,5.9,2,5.9,5.7c0,2.3-1,4.1-2.7,5.1l4,5.6h-2.7l-3.6-4.9
				c-0.2,0-0.5,0-0.8,0h-2.5V675.7z M869.9,668.9c2.8,0,4.1-1.4,4.1-3.8c0-2.5-1.4-4-4.1-4h-1.9v7.8H869.9z"/>
			<path class="st5" d="M889.9,672.1h-6.5l-1.1,3.6H880l5.4-16.6h2.5l5.6,16.6h-2.4L889.9,672.1z M889.3,670.2l-2.8-8.6l-2.6,8.6
				H889.3z"/>
			<path class="st5" d="M906.5,674.2l3.3,4.9h-2.5l-2.5-3.6c-0.8,0.4-1.6,0.6-2.5,0.6c-3.7,0-6-2.9-6-8.5c0-5.4,2.5-8.6,6.3-8.6
				c3.8,0,6,3.2,6,8.6C908.6,670.6,907.8,672.8,906.5,674.2z M902.4,674c0.4,0,0.9-0.1,1.3-0.3l-2.8-4h2.5l1.8,2.7
				c0.7-1.1,1.2-2.7,1.2-4.9c0-4-1.5-6.6-4-6.6c-2.3,0-4,2.3-4,6.6C898.4,671.9,900,674,902.4,674z"/>
		</g>
		<circle class="st5" cx="926" cy="668.8" r="8.4"/>
	</g>
	<g>
		<g>
			<path class="st5" d="M652.1,464.7H643v-0.3l6.7-10.7h-6.2v-1.4h8.5v0.2l-6.7,10.7h6.8V464.7z"/>
			<path class="st5" d="M661.4,463.6c-0.6,0.7-1.6,1.2-2.9,1.2c-1.8,0-3-0.7-3-2.6c0-1.9,1.6-3,5.9-3.2c-0.1-1.5-1-2.1-2.4-2.1
				c-1,0-1.9,0.3-2.8,1l0.3-1.6c0.8-0.5,1.7-0.8,2.8-0.8c2.4,0,3.7,1.3,3.7,3.5v5.7h-1.2L661.4,463.6z M658.9,463.5
				c0.8,0,1.8-0.4,2.4-1v-2.4c-3,0.2-4.4,0.8-4.4,2C656.9,463.1,657.6,463.5,658.9,463.5z"/>
			<path class="st5" d="M667.4,455.7h4.2v2.5c1.2-1.8,2.7-2.6,4.4-2.6l0.1,1.6c-1.6,0-3.2,0.9-4.5,2.4v3.9h3.9v1.3h-8.1v-1.3h2.6
				v-6.5h-2.6V455.7z"/>
			<path class="st5" d="M687,468h-1.6v-3.9c-0.6,0.5-1.4,0.7-2.4,0.7c-2.4,0-4-1.6-4-4.6c0-2.9,1.8-4.7,4.3-4.7c1,0,1.8,0.2,2.5,0.7
				l0.4-0.6h0.9V468z M683.3,463.5c0.9,0,1.5-0.3,2.1-0.8v-5.2c-0.6-0.4-1.2-0.6-2.1-0.6c-1.7,0-2.8,1.3-2.8,3.3
				C680.6,462.2,681.6,463.5,683.3,463.5z"/>
			<path class="st5" d="M697.1,463.6c-0.6,0.7-1.6,1.2-2.9,1.2c-1.8,0-3-0.7-3-2.6c0-1.9,1.6-3,5.9-3.2c-0.1-1.5-1-2.1-2.4-2.1
				c-1,0-1.9,0.3-2.8,1l0.3-1.6c0.8-0.5,1.7-0.8,2.8-0.8c2.4,0,3.7,1.3,3.7,3.5v5.7h-1.2L697.1,463.6z M694.6,463.5
				c0.9,0,1.8-0.4,2.4-1v-2.4c-3,0.2-4.4,0.8-4.4,2C692.6,463.1,693.3,463.5,694.6,463.5z"/>
			<path class="st5" d="M645.5,482h-1.6v-12.4h3.3c2.5,0,4.5,1.5,4.5,4.3c0,1.7-0.8,3.1-2.1,3.9l3,4.2h-2l-2.7-3.7
				c-0.2,0-0.4,0-0.6,0h-1.9V482z M646.9,476.9c2.1,0,3.1-1.1,3.1-2.8c0-1.9-1.1-3.1-3.1-3.1h-1.4v5.9H646.9z"/>
			<path class="st5" d="M655.4,473h5v7.8h3.3v1.3h-8.4v-1.3h3.5v-6.5h-3.5V473z M660.5,468.7v1.8h-1.9v-1.8H660.5z"/>
			<path class="st5" d="M672.1,482h-1.4l-3.9-9h1.7l2.9,6.9l3-6.9h1.6L672.1,482z"/>
			<path class="st5" d="M683.7,482.2c-2.4,0-4.5-1.2-4.5-4.6c0-3.2,2-4.7,4.2-4.7c2.7,0,3.9,1.9,3.9,4.9h-6.6
				c0.1,2.3,1.6,3.1,3.2,3.1c1.1,0,2-0.2,2.8-0.7l-0.2,1.4C685.9,482,684.9,482.2,683.7,482.2z M680.8,476.6h5.1
				c-0.2-1.7-1.1-2.5-2.5-2.5C682.3,474.2,681.1,474.8,680.8,476.6z"/>
			<path class="st5" d="M691.2,473h4.2v2.5c1.2-1.8,2.7-2.6,4.4-2.6l0.1,1.6c-1.6,0-3.2,0.9-4.5,2.4v3.9h3.9v1.3h-8.1v-1.3h2.6v-6.5
				h-2.6V473z"/>
		</g>
	</g>
	<g>
		<g>
			<path class="st5" d="M284,413.1h6.1v6.3c0,4.8-1.8,6.3-5.2,6.3c-0.5,0-1-0.1-1.5-0.2l-0.2-1.5c0.5,0.2,1,0.3,1.5,0.3
				c2.9,0,3.8-1.5,3.8-4.9v-4.7H284V413.1z"/>
			<path class="st5" d="M294.8,421c0-2.9,1.8-4.7,4.2-4.7c2.7,0,4.1,1.8,4.1,4.6c0,2.8-1.6,4.7-4.2,4.7
				C296.3,425.7,294.8,423.9,294.8,421z M301.5,421c0-2.1-1-3.3-2.6-3.3c-1.5,0-2.6,1.2-2.6,3.3c0,2.2,1.1,3.3,2.6,3.3
				C300.5,424.3,301.5,423.2,301.5,421z"/>
			<path class="st5" d="M306.8,416.5h4.2v2.5c1.2-1.8,2.7-2.6,4.4-2.6l0.1,1.6c-1.6,0-3.2,0.9-4.5,2.4v3.9h3.9v1.3h-8.1v-1.3h2.6
				v-6.5h-2.6V416.5z"/>
			<path class="st5" d="M325.1,424.8c-0.7,0.5-1.5,0.9-2.6,0.9c-2.4,0-4-1.6-4-4.6c0-2.9,1.8-4.7,4.3-4.7c0.9,0,1.5,0.2,2.2,0.5
				v-4.6h1.6v13.2h-1L325.1,424.8z M322.8,424.3c0.9,0,1.5-0.3,2.1-0.8v-5.2c-0.6-0.4-1.2-0.6-2.1-0.6c-1.7,0-2.8,1.3-2.8,3.3
				C320,423.1,321.1,424.3,322.8,424.3z"/>
			<path class="st5" d="M336.5,424.5c-0.6,0.7-1.6,1.2-2.9,1.2c-1.8,0-3-0.7-3-2.6c0-1.9,1.6-3,5.9-3.2c-0.1-1.5-1-2.1-2.4-2.1
				c-1,0-1.9,0.3-2.8,1l0.3-1.6c0.8-0.5,1.7-0.8,2.8-0.8c2.4,0,3.7,1.3,3.7,3.5v5.7h-1.2L336.5,424.5z M334,424.4
				c0.9,0,1.8-0.4,2.4-1V421c-3,0.2-4.4,0.8-4.4,2C332.1,423.9,332.7,424.4,334,424.4z"/>
			<path class="st5" d="M344.5,418.8v6.7h-1.6v-9h1.2l0.3,1c0.8-0.7,1.7-1.1,2.7-1.1c1.9,0,3.1,1.1,3.1,3.7v5.5h-1.6v-5.2
				c0-1.8-0.7-2.4-2-2.4C345.9,417.9,345.2,418.2,344.5,418.8z"/>
			<path class="st5" d="M296.8,442.9h-1.6v-12.4h3.3c2.5,0,4.5,1.5,4.5,4.3c0,1.7-0.8,3.1-2.1,3.9l3,4.2h-2l-2.7-3.7
				c-0.2,0-0.4,0-0.6,0h-1.9V442.9z M298.2,437.8c2.1,0,3.1-1.1,3.1-2.8c0-1.9-1.1-3.1-3.1-3.1h-1.4v5.9H298.2z"/>
			<path class="st5" d="M306.7,433.9h5v7.8h3.3v1.3h-8.4v-1.3h3.5v-6.5h-3.5V433.9z M311.8,429.5v1.8h-1.9v-1.8H311.8z"/>
			<path class="st5" d="M323.4,442.9H322l-3.9-9h1.7l2.9,6.9l3-6.9h1.6L323.4,442.9z"/>
			<path class="st5" d="M335,443c-2.4,0-4.5-1.2-4.5-4.6c0-3.2,2-4.7,4.2-4.7c2.7,0,3.9,1.9,3.9,4.9h-6.6c0.1,2.3,1.6,3.1,3.2,3.1
				c1.1,0,2-0.2,2.8-0.7l-0.2,1.4C337.2,442.8,336.2,443,335,443z M332.1,437.5h5.1c-0.2-1.7-1.1-2.5-2.5-2.5
				C333.6,435,332.4,435.7,332.1,437.5z"/>
			<path class="st5" d="M342.5,433.9h4.2v2.5c1.2-1.8,2.7-2.6,4.4-2.6l0.1,1.6c-1.6,0-3.2,0.9-4.5,2.4v3.9h3.9v1.3h-8.1v-1.3h2.6
				v-6.5h-2.6V433.9z"/>
		</g>
	</g>
	<g>
		<g>
			<path class="st5" d="M427.5,799.9v8.8h-1.3v-12.4h1.4l3.3,9.3l3.3-9.3h1.3v12.4h-1.4v-8.8l-3.2,8.8h-0.3L427.5,799.9z"/>
			<path class="st5" d="M444.8,807.7c-0.8,0.7-1.7,1.1-2.7,1.1c-1.9,0-3.1-1.1-3.1-3.7v-5.5h1.6v5.2c0,1.8,0.7,2.4,2,2.4
				c0.8,0,1.4-0.3,2.2-0.9v-6.7h1.6v9h-1.2L444.8,807.7z"/>
			<path class="st5" d="M451.5,799.7h5.1v8.2c0,3.2-1.5,4.2-3.7,4.2c-0.6,0-1.1-0.1-1.6-0.3l-0.1-1.4c0.6,0.2,1,0.3,1.5,0.3
				c1.7,0,2.4-0.8,2.4-2.7v-7h-3.6V799.7z M456.6,795.4v1.8h-1.9v-1.8H456.6z"/>
			<path class="st5" d="M466.8,808.9c-2.4,0-4.5-1.2-4.5-4.6c0-3.2,2-4.7,4.2-4.7c2.7,0,3.9,1.9,3.9,4.9h-6.6
				c0.1,2.3,1.6,3.1,3.2,3.1c1.1,0,2-0.2,2.8-0.7l-0.2,1.4C469,808.7,468,808.9,466.8,808.9z M463.9,803.3h5.1
				c-0.2-1.7-1.1-2.5-2.5-2.5C465.4,800.8,464.2,801.5,463.9,803.3z"/>
			<path class="st5" d="M478.4,808.9c-1,0-1.8-0.2-2.5-0.7l-0.3,0.6h-0.9v-13.2h1.6v4.8c0.6-0.5,1.4-0.8,2.4-0.8c2.4,0,4,1.6,4,4.6
				C482.7,807,480.9,808.9,478.4,808.9z M476.2,801.8v5.2c0.6,0.4,1.2,0.6,2.1,0.6c1.7,0,2.8-1.3,2.8-3.3c0-2-1.1-3.2-2.8-3.2
				C477.4,801,476.9,801.2,476.2,801.8z"/>
		</g>
	</g>
	<g>
		<g>
			<path class="st5" d="M433.2,752.7h-5v5.4h-1.6v-12.4h1.6v5.7h5v-5.7h1.6v12.4h-1.6V752.7z"/>
			<path class="st5" d="M438.5,749.1h5v7.8h3.3v1.3h-8.4v-1.3h3.5v-6.5h-3.5V749.1z M443.6,744.7v1.8h-1.9v-1.8H443.6z"/>
			<path class="st5" d="M456.9,757.4c-0.7,0.5-1.5,0.9-2.6,0.9c-2.4,0-4-1.6-4-4.6c0-2.9,1.8-4.7,4.3-4.7c0.9,0,1.5,0.2,2.2,0.5
				v-4.6h1.6v13.2h-1L456.9,757.4z M454.5,756.9c0.9,0,1.5-0.3,2.1-0.8v-5.2c-0.6-0.4-1.2-0.6-2.1-0.6c-1.7,0-2.8,1.3-2.8,3.3
				C451.8,755.6,452.8,756.9,454.5,756.9z"/>
			<path class="st5" d="M468.3,757.1c-0.6,0.7-1.6,1.2-2.9,1.2c-1.8,0-3-0.7-3-2.6c0-1.9,1.6-3,5.9-3.2c-0.1-1.5-1-2.1-2.4-2.1
				c-1,0-1.9,0.3-2.8,1l0.3-1.6c0.8-0.5,1.7-0.8,2.8-0.8c2.4,0,3.7,1.3,3.7,3.5v5.7h-1.2L468.3,757.1z M465.8,757
				c0.9,0,1.8-0.4,2.4-1v-2.4c-3,0.2-4.4,0.8-4.4,2C463.8,756.5,464.5,757,465.8,757z"/>
			<path class="st5" d="M476.3,751.4v6.7h-1.6v-9h1.2l0.3,1c0.8-0.7,1.7-1.1,2.7-1.1c1.9,0,3.1,1.1,3.1,3.7v5.5h-1.6v-5.2
				c0-1.8-0.7-2.4-2-2.4C477.7,750.5,477,750.8,476.3,751.4z"/>
		</g>
	</g>
	<g>
		<g>
			<path class="st5" d="M317.6,1047.9h-5v5.4H311v-12.4h1.6v5.7h5v-5.7h1.6v12.4h-1.6V1047.9z"/>
			<path class="st5" d="M328.8,1052.2c-0.6,0.7-1.6,1.2-2.9,1.2c-1.8,0-3-0.7-3-2.6c0-1.9,1.6-3,5.9-3.2c-0.1-1.5-1-2.1-2.4-2.1
				c-1,0-1.9,0.3-2.8,1l0.3-1.6c0.8-0.5,1.7-0.8,2.8-0.8c2.4,0,3.7,1.3,3.7,3.5v5.7h-1.2L328.8,1052.2z M326.3,1052.1
				c0.9,0,1.8-0.4,2.4-1v-2.4c-3,0.2-4.4,0.8-4.4,2C324.4,1051.6,325.1,1052.1,326.3,1052.1z"/>
			<path class="st5" d="M335.1,1052.7l-0.1-1.5c1,0.6,2.3,0.9,3.6,0.9c1.6,0,2.6-0.4,2.6-1.4c0-0.7-0.3-1.1-2.4-1.5l-0.3-0.1
				c-2.4-0.5-3.1-1.2-3.1-2.5c0-1.6,1.4-2.5,3.7-2.5c1.3,0,2.2,0.2,3,0.5l0.1,1.4c-0.9-0.4-2-0.6-3.2-0.6c-1.4,0-2.3,0.4-2.3,1.2
				c0,0.7,0.4,1,2.4,1.4l0.4,0.1c2.6,0.5,3.1,1.4,3.1,2.6c0,1.8-1.6,2.7-4.1,2.7C337.3,1053.4,336,1053.2,335.1,1052.7z"/>
			<path class="st5" d="M352.6,1052.2c-0.6,0.7-1.6,1.2-2.9,1.2c-1.8,0-3-0.7-3-2.6c0-1.9,1.6-3,5.9-3.2c-0.1-1.5-1-2.1-2.4-2.1
				c-1,0-1.9,0.3-2.8,1l0.3-1.6c0.8-0.5,1.7-0.8,2.8-0.8c2.4,0,3.7,1.3,3.7,3.5v5.7h-1.2L352.6,1052.2z M350.1,1052.1
				c0.9,0,1.8-0.4,2.4-1v-2.4c-3,0.2-4.4,0.8-4.4,2C348.2,1051.6,348.9,1052.1,350.1,1052.1z"/>
		</g>
	</g>
	<g>
		<path class="st5" d="M435.8,193.7h-1.6v-4.3l-4.6-8.1h1.9l3.6,6.7l3.6-6.7h1.8l-4.6,8.1V193.7z"/>
		<path class="st5" d="M448.7,192.6c-0.6,0.7-1.6,1.2-2.9,1.2c-1.8,0-3-0.7-3-2.6c0-1.9,1.6-3,5.9-3.2c-0.1-1.5-1-2.1-2.4-2.1
			c-1,0-1.9,0.3-2.8,1l0.3-1.6c0.8-0.5,1.7-0.8,2.8-0.8c2.4,0,3.7,1.3,3.7,3.5v5.7H449L448.7,192.6z M446.2,192.5
			c0.9,0,1.8-0.4,2.4-1v-2.4c-3,0.2-4.4,0.8-4.4,2C444.3,192.1,445,192.5,446.2,192.5z"/>
		<path class="st5" d="M454.7,184.7h4.2v2.5c1.2-1.8,2.7-2.6,4.4-2.6l0.1,1.6c-1.6,0-3.2,0.9-4.5,2.4v3.9h3.9v1.3h-8.1v-1.3h2.6
			v-6.5h-2.6V184.7z"/>
		<path class="st5" d="M467,186.8v6.9h-1.4v-9h1l0.3,0.9c0.6-0.6,1.2-1,2-1c1,0,1.7,0.4,2.1,1.2c0.7-0.7,1.4-1.2,2.3-1.2
			c1.6,0,2.4,1,2.4,3.3v5.8h-1.4v-5.5c0-1.7-0.5-2.3-1.4-2.3c-0.6,0-1,0.3-1.6,0.8c0.1,0.3,0.1,0.6,0.1,1v5.9H470v-5.5
			c0-1.7-0.5-2.3-1.4-2.3C468,185.9,467.6,186.3,467,186.8z"/>
		<path class="st5" d="M478.4,189.2c0-2.9,1.8-4.7,4.2-4.7c2.7,0,4.1,1.8,4.1,4.6c0,2.8-1.6,4.7-4.2,4.7
			C479.9,193.9,478.4,192,478.4,189.2z M485.2,189.2c0-2.1-1-3.3-2.6-3.3c-1.5,0-2.6,1.2-2.6,3.3c0,2.2,1.1,3.3,2.6,3.3
			C484.1,192.5,485.2,191.3,485.2,189.2z"/>
		<path class="st5" d="M496.6,192.7c-0.8,0.7-1.7,1.1-2.7,1.1c-1.9,0-3.1-1.1-3.1-3.7v-5.5h1.6v5.2c0,1.8,0.7,2.4,2,2.4
			c0.8,0,1.4-0.3,2.2-0.9v-6.7h1.6v9H497L496.6,192.7z"/>
		<path class="st5" d="M505.8,189.5l-1.3,1.5v2.7h-1.6v-13.2h1.6v8.6l3.7-4.4h1.9l-3.2,3.6l3.9,5.4h-1.9L505.8,189.5z"/>
		<path class="st5" d="M432.8,211h-1.6v-12.4h3.3c2.5,0,4.5,1.5,4.5,4.3c0,1.7-0.8,3.1-2.1,3.9l3,4.2h-2l-2.7-3.7
			c-0.2,0-0.4,0-0.6,0h-1.9V211z M434.2,205.9c2.1,0,3.1-1.1,3.1-2.8c0-1.9-1.1-3.1-3.1-3.1h-1.4v5.9H434.2z"/>
		<path class="st5" d="M442.7,202h5v7.8h3.3v1.3h-8.4v-1.3h3.5v-6.5h-3.5V202z M447.8,197.7v1.8h-1.9v-1.8H447.8z"/>
		<path class="st5" d="M459.4,211h-1.4l-3.9-9h1.7l2.9,6.9l3-6.9h1.6L459.4,211z"/>
		<path class="st5" d="M471,211.2c-2.4,0-4.5-1.2-4.5-4.6c0-3.2,2-4.7,4.2-4.7c2.7,0,3.9,1.9,3.9,4.9h-6.6c0.1,2.3,1.6,3.1,3.2,3.1
			c1.1,0,2-0.2,2.8-0.7l-0.2,1.4C473.2,211,472.3,211.2,471,211.2z M468.1,205.6h5.1c-0.2-1.7-1.1-2.5-2.5-2.5
			C469.6,203.2,468.4,203.8,468.1,205.6z"/>
		<path class="st5" d="M478.5,202h4.2v2.5c1.2-1.8,2.7-2.6,4.4-2.6l0.1,1.6c-1.6,0-3.2,0.9-4.5,2.4v3.9h3.9v1.3h-8.1v-1.3h2.6v-6.5
			h-2.6V202z"/>
	</g>
</g>
</svg>
