<?xml version="1.0" encoding="utf-8"?>
<!-- Generator: Adobe Illustrator 20.0.0, SVG Export Plug-In . SVG Version: 6.00 Build 0)  -->
<svg version="1.1" id="Topography" xmlns="http://www.w3.org/2000/svg" xmlns:xlink="http://www.w3.org/1999/xlink" x="0px" y="0px"
	 viewBox="0 0 1200 1920" style="enable-background:new 0 0 1200 1920;" xml:space="preserve">
<style type="text/css">
	.st0{clip-path:url(#SVGID_2_);}
	.st1{fill:none;stroke:#666666;stroke-width:1.6067;stroke-miterlimit:10;}
	.st2{fill:#FFFFFF;}
</style>
<g id="Topography_1_">
	<g>
		<g>
			<g>
				<defs>
					<rect id="SVGID_1_" y="0" width="1200" height="1920.4"/>
				</defs>
				<clipPath id="SVGID_2_">
					<use xlink:href="#SVGID_1_"  style="overflow:visible;"/>
				</clipPath>
				<g class="st0">
					<polygon class="st1" points="1063,833.4 1135.3,905.7 1135.3,934.7 1222.1,1021.4 1222.1,1050.3 1308.8,1137.1 1308.8,1166 
						1410.1,1267.2 1323.3,1354 1222.1,1354 1048.6,1527.5 875,1527.5 585.8,1816.7 513.5,1816.7 470.2,1773.3 397.9,1773.3 
						354.5,1730 282.2,1730 250.8,1698.6 116,1698.4 116,1678.7 101.6,1664.3 94.8,1664.3 94.8,1543.5 181,1456.6 181,1296.2 
						224.3,1252.8 224.3,1151.6 282.2,1093.7 282.2,902.4 311.1,873.4 311.1,761.1 350.5,721.8 350.5,692.8 336,678.4 354.5,659.9 
						354.5,544.2 368.9,529.8 368.9,414.1 354.5,399.6 354.5,298.4 426.8,226.1 528,226.1 614.8,312.9 643.7,312.9 759.4,428.5 
						947.3,428.5 1120.9,255 1164.2,255 1279.9,139.3 1323.3,139.3 1439,23.7 1482.4,23.7 1598.1,-92 1641.4,-48.6 1641.4,23.7 
						1699.3,81.5 1699.3,139.3 1786,226.1 1742.7,269.5 1786,312.9 1858.3,240.6 1901.7,283.9 1872.8,312.9 1930.6,370.7 
						1930.6,399.6 1800.5,529.8 1742.7,529.8 1655.9,616.5 1583.6,616.5 1467.9,732.2 1395.6,732.2 1294.4,833.4 					"/>
					<polygon class="st1" points="1872.8,312.9 1901.7,283.9 1858.3,240.6 1786,312.9 1742.7,269.5 1786,226.1 1699.3,139.3 
						1699.3,81.5 1641.4,23.7 1641.4,-48.6 1598.1,-92 1482.4,23.7 1439,23.7 1323.3,139.3 1279.9,139.3 1164.2,255 1120.9,255 
						947.3,428.5 759.4,428.5 643.7,312.9 614.8,312.9 528,226.1 441.2,226.1 368.9,298.4 368.9,385.2 397.9,414.1 397.9,443 
						426.8,471.9 455.7,471.9 484.6,500.9 470.2,500.9 455.7,486.4 426.8,486.4 412.3,500.9 412.3,529.8 397.9,544.2 397.9,645.5 
						412.3,659.9 412.3,688.8 340,761.1 340,790.1 354.5,804.5 441.2,804.5 426.8,819 368.9,819 354.5,833.4 354.5,847.9 
						368.9,862.4 368.9,963.6 325.6,1007 325.6,1035.9 340,1050.3 383.4,1050.3 412.3,1079.3 397.9,1079.3 383.4,1064.8 
						325.6,1064.8 311.1,1079.3 311.1,1108.2 253.3,1166 253.3,1252.8 181.1,1324.9 181,1456.6 94.8,1543.5 94.8,1664.3 
						101.6,1664.3 116,1678.7 116,1698.4 250.8,1698.6 282.2,1730 354.5,1730 397.9,1773.3 470.2,1773.3 513.5,1816.7 585.8,1816.7 
						875,1527.5 1048.6,1527.5 1222.1,1354 1323.3,1354 1410.1,1267.2 1308.8,1166 1308.8,1137.1 1222.1,1050.3 1222.1,1021.4 
						1135.3,934.7 1135.3,905.7 1063,833.4 1294.4,833.4 1395.6,732.2 1467.9,732.2 1583.6,616.5 1655.9,616.5 1742.7,529.8 
						1800.5,529.8 1930.6,399.6 1930.6,370.7 					"/>
					<polygon class="st1" points="1872.8,312.9 1901.7,283.9 1858.3,240.6 1786,312.9 1742.7,269.5 1786,226.1 1699.3,139.3 
						1699.3,81.5 1641.4,23.7 1641.4,-48.6 1598.1,-92 1482.4,23.7 1439,23.7 1323.3,139.3 1279.9,139.3 1164.2,255 1120.9,255 
						947.3,428.5 759.4,428.5 643.7,312.9 614.8,312.9 542.5,240.6 441.2,240.6 397.9,283.9 397.9,385.2 412.3,399.6 412.3,443 
						426.8,457.5 455.7,457.5 499.1,500.9 528,500.9 513.5,515.3 470.2,515.3 455.7,500.9 441.2,500.9 426.8,515.3 426.8,544.2 
						412.3,558.7 412.3,631 426.8,645.5 426.8,659.9 441.2,645.5 470.2,645.5 455.7,659.9 441.2,659.9 426.8,674.4 470.2,674.4 
						455.7,688.8 426.8,688.8 426.8,703.3 354.5,775.6 354.5,790.1 397.9,790.1 426.8,761.1 470.2,761.1 455.7,775.6 426.8,775.6 
						412.3,790.1 441.2,790.1 455.7,804.5 528,804.5 513.5,819 484.6,819 528,862.4 513.5,862.4 484.6,833.4 368.9,833.4 
						368.9,847.9 383.4,862.4 383.4,876.8 412.3,876.8 397.9,891.3 383.4,891.3 383.4,905.7 397.9,920.2 426.8,920.2 412.3,934.7 
						397.9,934.7 383.4,920.2 383.4,978 412.3,978 397.9,992.5 354.5,992.5 340,1007 340,1035.9 383.4,1035.9 441.2,1093.7 
						455.7,1093.7 484.6,1122.6 470.2,1122.6 455.7,1108.2 441.2,1108.2 412.3,1108.2 383.4,1079.3 354.5,1079.3 340,1093.7 
						340,1108.2 354.5,1108.2 383.4,1137.1 368.9,1137.1 354.5,1122.6 340,1122.6 340,1137.1 296.6,1180.5 340,1180.5 325.6,1194.9 
						296.6,1194.9 282.2,1209.4 282.2,1238.3 296.6,1252.8 296.6,1267.2 282.2,1281.7 238.8,1325.1 238.8,1397.4 224.3,1411.8 
						224.3,1440.8 137.6,1527.5 137.6,1570.9 181,1614.3 181,1657.7 209.9,1657.7 282.2,1730 354.5,1730 397.9,1773.3 470.2,1773.3 
						513.5,1816.7 585.8,1816.7 875,1527.5 1048.6,1527.5 1222.1,1354 1323.3,1354 1410.1,1267.2 1308.8,1166 1308.8,1137.1 
						1222.1,1050.3 1222.1,1021.4 1135.3,934.7 1135.3,905.7 1063,833.4 1294.4,833.4 1395.6,732.2 1467.9,732.2 1583.6,616.5 
						1655.9,616.5 1742.7,529.8 1800.5,529.8 1930.6,399.6 1930.6,370.7 					"/>
					<g>
						<polygon class="st1" points="1236.5,1310.6 1207.6,1296.2 1120.9,1296.2 1106.4,1281.7 1106.4,1267.2 1077.5,1238.3 
							1063,1238.3 1005.2,1180.5 976.3,1180.5 947.3,1137.1 947.3,1108.2 961.8,1093.7 1034.1,1093.7 1034.1,1064.8 976.3,1007 
							947.3,1007 932.9,1021.4 918.4,1021.4 904,1007 904,978 889.5,963.6 889.5,934.7 875,920.2 846.1,934.7 846.1,876.8 
							802.7,833.4 802.7,775.6 730.4,703.3 730.4,688.8 773.8,645.5 773.8,616.5 759.4,602.1 716,602.1 687.1,573.2 643.7,573.2 
							629.2,587.6 600.3,587.6 643.7,544.2 643.7,515.3 614.8,486.4 585.8,486.4 556.9,515.3 528,515.3 513.5,529.8 513.5,558.7 
							499.1,558.7 470.2,529.8 441.2,529.8 441.2,558.7 426.8,573.2 426.8,616.5 441.2,631 470.2,631 484.6,645.5 484.6,688.8 
							470.2,703.3 441.2,703.3 368.9,775.6 397.9,775.6 426.8,746.7 455.7,746.7 470.2,732.2 513.5,732.2 528,717.8 528,703.3 
							556.9,674.4 614.8,674.4 643.7,703.3 643.7,717.8 672.6,746.7 600.3,746.7 585.8,732.2 556.9,732.2 542.5,746.7 571.4,746.7 
							600.3,775.6 600.3,790.1 585.8,804.5 556.9,775.6 499.1,775.6 484.6,790.1 528,790.1 542.5,804.5 542.5,833.4 513.5,833.4 
							542.5,862.4 542.5,876.8 513.5,876.8 484.6,847.9 383.4,847.9 397.9,862.4 426.8,862.4 426.8,876.8 397.9,905.7 441.2,905.7 
							441.2,920.2 412.3,949.1 397.9,949.1 397.9,963.6 426.8,963.6 426.8,978 397.9,1007 368.9,1007 354.5,1021.4 383.4,1021.4 
							441.2,1079.3 455.7,1079.3 499.1,1122.6 499.1,1137.1 470.2,1137.1 455.7,1122.6 412.3,1122.6 383.4,1093.7 354.5,1093.7 
							397.9,1137.1 397.9,1151.6 368.9,1151.6 354.5,1137.1 325.6,1166 354.5,1166 354.5,1180.5 325.6,1209.4 296.6,1209.4 
							296.6,1238.3 311.1,1252.8 311.1,1267.2 296.6,1281.7 296.6,1325.1 267.7,1354 267.7,1411.8 152,1527.5 152,1585.4 
							181,1614.3 181,1657.7 209.9,1657.7 282.2,1730 354.5,1730 397.9,1773.3 441.2,1773.3 455.7,1758.9 499.1,1758.9 
							513.5,1744.4 556.9,1744.4 585.8,1715.5 629.2,1715.5 658.1,1744.4 875,1527.5 1048.6,1527.5 1222.1,1354 1265.5,1354 
							1236.5,1325.1 						"/>
						<polygon class="st1" points="1424.5,515.3 1453.5,544.2 1482.4,544.2 1496.8,529.8 1496.8,457.5 1467.9,428.5 1467.9,370.7 
							1424.5,327.3 1424.5,298.4 1323.3,197.2 1251,197.2 1236.5,182.7 1164.2,255 1120.9,255 947.3,428.5 773.8,428.5 773.8,443 
							802.7,471.9 802.7,500.9 846.1,544.2 990.7,544.2 1019.6,515.3 1063,515.3 1091.9,486.4 1091.9,457.5 1120.9,428.5 
							1120.9,399.6 1135.3,385.2 1135.3,356.2 1193.2,414.1 1236.5,414.1 1279.9,457.5 1323.3,457.5 1381.2,515.3 						"/>
						<polygon class="st1" points="1511.3,602.1 1496.8,616.5 1467.9,616.5 1453.5,631 1424.5,631 1410.1,616.5 1381.2,616.5 
							1366.7,631 1366.7,659.9 1352.2,674.4 1352.2,732.2 1337.8,746.7 1337.8,790.1 1394.8,732.2 1467.9,732.2 1569.1,631 
							1540.2,602.1 						"/>
						<polygon class="st1" points="1872.8,312.9 1901.7,283.9 1858.3,240.6 1786,312.9 1742.7,269.5 1786,226.1 1699.3,139.3 
							1699.3,81.5 1641.4,23.7 1641.4,-48.6 1598.1,-92 1482.4,23.7 1439,23.7 1410.1,52.6 1439,52.6 1467.9,81.5 1467.9,110.4 
							1525.8,168.3 1525.8,197.2 1583.6,255 1583.6,298.4 1627,341.8 1627,399.6 1583.6,443 1583.6,500.9 1627,544.2 1627,573.2 
							1670.4,573.2 1684.8,587.6 1742.7,529.8 1800.5,529.8 1930.6,399.6 1930.6,370.7 						"/>
						<polygon class="st1" points="426.8,428.5 441.2,443 455.7,443 470.2,457.5 484.6,457.5 484.6,471.9 499.1,486.4 528,486.4 
							528,457.5 513.5,443 513.5,428.5 528,428.5 556.9,457.5 600.3,457.5 614.8,443 629.2,443 643.7,428.5 643.7,399.6 
							614.8,370.7 629.2,356.2 614.8,341.8 542.5,341.8 542.5,327.3 499.1,283.9 455.7,283.9 426.8,312.9 426.8,341.8 412.3,356.2 
							412.3,385.2 426.8,399.6 						"/>
					</g>
					<g>
						<polygon class="st1" points="585.8,602.1 571.4,616.5 556.9,616.5 585.8,587.6 585.8,573.2 571.4,587.6 556.9,587.6 
							556.9,573.1 585.8,544.2 614.8,544.2 600.3,529.8 585.8,529.8 600.3,515.3 585.8,515.3 571.4,529.8 542.5,529.8 528,544.2 
							528,573.2 499.1,573.2 470.2,544.2 455.7,544.2 455.7,573.2 441.2,587.6 441.2,602.1 455.7,616.5 470.2,616.5 470.2,602.1 
							484.6,602.1 499.1,616.5 513.5,616.5 513.5,631 499.1,645.5 499.1,659.9 513.5,659.9 499.1,674.4 499.1,688.8 513.5,688.8 
							542.5,659.9 542.5,645.5 571.4,645.5 585.8,631 614.8,631 629.2,645.5 629.2,631 614.8,616.5 629.2,602.1 						"/>
						<polygon class="st1" points="658.1,659.9 672.6,674.4 672.6,703.3 687.1,688.8 687.1,674.4 701.5,674.4 687.1,659.9 
							701.5,645.5 672.6,616.5 672.6,631 658.1,631 643.7,645.5 629.2,645.5 643.7,659.9 						"/>
						<polygon class="st1" points="759.4,819 744.9,819 744.9,847.9 716,819 730.4,804.5 716,790.1 687.1,790.1 658.1,819 
							658.1,847.9 672.6,862.4 687.1,862.4 687.1,876.8 672.6,891.3 672.6,905.7 658.1,920.2 672.6,934.7 687.1,920.2 716,920.2 
							744.9,891.3 759.4,891.3 788.3,862.4 773.8,847.9 773.8,833.4 						"/>
						<path class="st1" d="M1106.4,1354l-14.5,14.5h-14.5L1063,1354h-14.5l-28.9-28.9h-14.5l-28.9-28.9v-14.5h14.5l14.5,14.5h28.9
							l-43.4-43.4h-14.5l-14.5-14.5h-43.4l-14.5,14.5v14.5h-14.5l-14.5-14.5h-14.5l-14.5-14.5v-14.5h14.5l-14.5-14.5v-14.5
							l-14.5-14.5h-14.5l-14.5,14.5h-14.5l-14.5,14.5v-28.9l14.5-14.5V1137l14.5-14.5v-28.9l14.5-14.5l14.5,14.5v-28.9l-14.5-14.5
							v-28.9h-14.5l-14.5-14.5V978l-14.5-14.5V949h-28.9L716,978v86.8h-14.5l-14.5-14.5v-14.5l-14.5-14.5h-28.9l-28.9-28.9h-14.5
							v14.5l43.4,43.4l0,0v43.4l28.9,28.9H687l14.5,14.5v28.9H687l-14.5-14.5H658l-14.5,14.5H629v14.5l14.5,14.5v14.5l28.9,28.9H629
							l-28.9-28.9h-28.9l-14.5,14.5H528l-14.5-14.5V1195l-57.8-57.8h-43.4v28.9h-43.4v14.5l-43.4,43.4H311v14.5l14.5,14.5v14.5
							L311,1282v43.4l-28.9,28.9v57.8l-115.7,115.7v28.9l14.5,14.5l28.9-28.9h14.5l57.8-57.8V1470H311l101.2,101.2v14.5l14.5,14.5
							v14.5l14.5,14.5v14.5l14.5,14.5h28.9v14.5l-14.5,14.5h-14.5v14.5h-28.9l-14.5-14.5v-28.9l-28.9-28.9v-14.5l-86.8-86.8h-28.9
							l-28.9,28.9h-14.5l-14.5,14.5h-14.5l28.9,28.9H253l14.5,14.5v14.5H253l-14.5-14.5H224l-28.9-28.9H181l14.5,14.5v43.4
							l86.8,86.8h72.3l43.4,43.4l28.9-28.9h14.5l14.5-14.5h28.9l43.4-43.4v-28.9l28.9-28.9h43.4l43.4-28.9h57.8l14.5,14.5v14.5
							l14.5,14.5h28.9L875,1527.5h173.5l28.9-28.9v-28.9l-14.5-14.5l28.9-28.9l14.5,14.5l14.5-14.5l-28.9-28.9h28.9l14.5,14.5v28.9
							l43.4-43.4l-43.4-43.4L1106.4,1354L1106.4,1354z M831.7,1397.4l-14.5,14.5l14.5,14.5v28.9l-14.5,14.5h-28.9l-14.5,14.5h-14.5
							l-14.5-14.5h-14.5l-14.5,14.5h-28.9l-14.5-14.5h-14.5l-14.5-14.5h-14.5l-28.9-28.9v-14.5v-14.5l-14.5-14.5l14.5-14.5V1354
							l14.5-14.5H629l14.5-14.5H658l14.5-14.5H687l14.5,14.5H716l14.5-14.5h28.9l28.9,28.9h14.5l28.9,28.9L831.7,1397.4
							L831.7,1397.4z"/>
						<polygon class="st1" points="441.2,414.1 455.7,428.5 470.2,428.5 484.6,443 484.6,414.1 484.6,399.6 528,399.6 542.5,385.2 
							571.4,385.2 585.8,399.6 614.8,399.6 571.4,356.2 528,356.2 528,341.8 499.1,312.9 455.7,312.9 441.2,327.3 441.2,356.2 
							426.8,370.7 426.8,385.2 441.2,399.6 						"/>
						<polygon class="st1" points="441.2,1064.8 455.7,1064.8 513.5,1122.6 571.4,1122.6 585.8,1137.1 629.2,1137.1 629.2,1122.6 
							614.8,1108.2 614.8,1064.8 600.3,1050.3 600.3,1035.9 585.8,1021.4 571.4,1021.4 571.4,1050.3 585.8,1064.8 585.8,1079.3 
							571.4,1064.8 542.5,1064.8 513.5,1035.9 513.5,1007 528,1007 528,992.5 528,963.6 513.5,949.1 513.5,920.2 499.1,905.7 
							499.1,876.8 484.6,862.4 441.2,862.4 441.2,876.8 426.8,891.3 441.2,891.3 455.7,905.7 455.7,920.2 441.2,934.7 426.8,949.1 
							441.2,963.6 441.2,978 412.3,1007 397.9,1021.4 412.3,1035.9 						"/>
						<polygon class="st1" points="687.1,717.8 672.6,717.8 716,761.1 759.4,761.1 744.9,746.7 730.4,746.7 716,732.2 701.5,732.2 
													"/>
						<polygon class="st1" points="629.2,934.7 614.8,949.1 629.2,949.1 643.7,963.6 672.6,963.6 643.7,934.7 						"/>
						<polygon class="st1" points="571.4,978 556.9,978 556.9,992.5 571.4,1007 585.8,1007 585.8,992.5 585.8,978 571.4,963.6 
													"/>
						<polygon class="st1" points="643.7,1628.7 643.7,1643.2 672.6,1672.1 687.1,1672.1 672.6,1657.7 701.5,1657.7 701.5,1643.2 
							687.1,1628.7 						"/>
						<polygon class="st1" points="1439,471.9 1439,443 1381.2,385.2 1381.2,370.7 1352.2,341.8 1352.2,327.3 1323.3,298.4 
							1323.3,269.5 1279.9,226.1 1251,226.1 1222.1,197.2 1164.2,255 1120.9,255 1135.3,269.5 1135.3,283.9 1178.7,327.3 
							1193.2,327.3 1236.5,370.7 1251,370.7 1294.4,414.1 1323.3,414.1 1352.2,443 1366.7,443 1395.6,471.9 						"/>
						<polygon class="st1" points="846.1,500.9 860.6,515.3 976.3,515.3 990.7,500.9 1005.2,500.9 1034.1,471.9 1034.1,443 
							1048.6,428.5 1048.6,399.6 1063,385.2 1063,312.9 947.3,428.5 802.7,428.5 846.1,471.9 						"/>
						<polygon class="st1" points="1872.8,312.9 1887.3,298.4 1858.3,298.4 1858.3,341.8 1843.9,356.2 1872.8,385.2 1843.9,385.2 
							1829.4,370.7 1786,370.7 1757.1,399.6 1786,399.6 1786,428.5 1771.6,443 1728.2,443 1699.3,471.9 1742.7,471.9 1757.1,486.4 
							1786,486.4 1815,515.3 1930.6,399.6 1930.6,370.7 						"/>
						<polygon class="st1" points="1742.7,500.9 1728.2,500.9 1713.7,486.4 1684.8,486.4 1670.4,500.9 1684.8,515.3 1699.3,515.3 
							1684.8,529.8 1670.4,529.8 1699.3,558.7 1713.7,558.7 1742.7,529.8 1757.1,529.8 1742.7,515.3 						"/>
						<polygon class="st1" points="1496.8,645.5 1482.4,659.9 1453.5,659.9 1439,674.4 1410.1,674.4 1395.6,688.8 1395.6,703.3 
							1381.2,717.8 1381.2,746.7 1394.8,732.2 1467.9,732.2 1540.2,659.9 1525.8,645.5 						"/>
					</g>
					<path class="st1" d="M976.3,428.5"/>
					<g>
						<polygon class="st1" points="499.1,587.6 513.5,602.1 528,602.1 542.5,587.6 542.5,573.2 528,587.6 						"/>
						<polygon class="st1" points="470.2,573.2 455.7,587.6 455.7,602.1 470.2,587.6 484.6,587.6 484.6,573.2 470.2,558.7 						"/>
						<polygon class="st1" points="470.2,385.2 528,385.2 542.5,370.7 513.5,370.7 499.1,356.2 499.1,341.8 484.6,327.3 
							470.2,327.3 455.7,341.8 455.7,356.2 441.2,370.7 441.2,385.2 470.2,414.1 						"/>
						<polygon class="st1" points="470.2,963.6 484.6,963.6 484.6,949.1 470.2,934.7 470.2,920.2 441.2,949.1 470.2,978 						"/>
						<polygon class="st1" points="455.7,1050.3 499.1,1093.7 513.5,1093.7 528,1108.2 542.5,1108.2 542.5,1093.7 499.1,1050.3 
							484.6,1050.3 484.6,1021.4 470.2,1007 470.2,992.5 455.7,992.5 455.7,978 412.3,1021.4 441.2,1050.3 						"/>
						<polygon class="st1" points="470.2,1310.6 499.1,1310.6 513.5,1325.1 571.4,1325.1 571.4,1310.6 556.9,1296.2 542.5,1296.2 
							528,1281.7 513.5,1281.7 499.1,1267.2 484.6,1267.2 484.6,1281.7 455.7,1281.7 470.2,1267.2 470.2,1252.8 484.6,1238.3 
							484.6,1209.4 470.2,1194.9 470.2,1166 455.7,1151.6 426.8,1151.6 426.8,1166 412.3,1180.5 383.4,1180.5 325.6,1238.3 
							340,1252.8 340,1267.2 325.6,1281.7 325.6,1325.1 296.6,1354 296.6,1411.8 181,1527.5 181,1556.4 209.9,1527.5 224.3,1527.5 
							253.3,1498.6 253.3,1469.7 282.2,1440.8 282.2,1455.2 325.6,1455.2 426.8,1556.4 426.8,1585.4 470.2,1585.4 499.1,1614.3 
							571.4,1614.3 556.9,1599.8 556.9,1556.4 513.5,1513.1 513.5,1469.7 470.2,1426.3 470.2,1354 455.7,1339.5 455.7,1325.1 						
							"/>
						<polygon class="st1" points="397.9,1672.1 383.4,1672.1 368.9,1686.6 368.9,1657.7 340,1628.7 340,1657.7 311.1,1628.7 
							340,1599.8 340,1585.4 325.6,1570.9 311.1,1585.4 296.6,1585.4 282.2,1599.8 282.2,1628.7 296.6,1628.7 296.6,1643.2 
							325.6,1672.1 296.6,1672.1 282.2,1657.7 282.2,1701 296.6,1715.5 282.2,1715.5 267.7,1701 267.7,1672.1 253.3,1686.6 
							238.8,1672.1 238.8,1657.7 224.3,1643.2 224.3,1628.7 209.9,1614.3 209.9,1657.7 282.2,1730 354.5,1730 383.4,1758.9 
							397.9,1758.9 412.3,1744.4 412.3,1715.5 397.9,1701 						"/>
						<polygon class="st1" points="296.6,1570.9 311.1,1556.4 296.6,1542 267.7,1542 238.8,1570.9 224.3,1570.9 238.8,1585.4 
							267.7,1585.4 282.2,1570.9 						"/>
						<polygon class="st1" points="253.3,1657.7 267.7,1657.7 282.2,1643.2 238.8,1643.2 						"/>
						<polygon class="st1" points="744.9,1108.2 759.4,1122.6 773.8,1122.6 759.4,1108.2 						"/>
						<polygon class="st1" points="976.3,1469.7 976.3,1455.2 961.8,1469.7 						"/>
						<polygon class="st1" points="744.9,1180.5 759.4,1194.9 759.4,1166 744.9,1151.6 730.4,1166 730.4,1180.5 730.4,1238.3 
							716,1252.8 716,1267.2 744.9,1296.2 744.9,1281.7 730.4,1267.2 730.4,1252.8 744.9,1238.3 744.9,1252.8 773.8,1281.7 
							773.8,1252.8 744.9,1223.9 						"/>
						<polygon class="st1" points="875,1325.1 875,1310.6 846.1,1310.6 831.7,1296.2 817.2,1296.2 788.3,1267.2 788.3,1296.2 
							802.7,1310.6 831.7,1310.6 846.1,1325.1 860.6,1325.1 875,1339.5 875,1354 889.5,1354 889.5,1382.9 904,1397.4 904,1339.5 
							889.5,1325.1 						"/>
						<polygon class="st1" points="716,1194.9 701.5,1209.4 701.5,1252.8 716,1238.3 						"/>
						<polygon class="st1" points="961.8,1397.4 961.8,1382.9 947.3,1397.4 947.3,1411.8 932.9,1426.3 947.3,1426.3 961.8,1426.3 
							947.3,1440.8 961.8,1440.8 976.3,1426.3 976.3,1411.8 						"/>
					</g>
					<g>
						<polygon class="st1" points="455.7,1527.5 455.7,1513.1 426.8,1484.1 426.8,1455.2 397.9,1426.3 397.9,1411.8 412.3,1397.4 
							412.3,1354 397.9,1339.5 397.9,1296.2 412.3,1281.7 412.3,1267.2 426.8,1252.8 441.2,1252.8 455.7,1238.3 455.7,1209.4 
							426.8,1180.5 412.3,1194.9 383.4,1194.9 354.5,1223.9 340,1238.3 354.5,1252.8 354.5,1267.2 340,1281.7 340,1325.1 
							311.1,1354 311.1,1411.8 296.6,1426.3 296.6,1440.8 325.6,1440.8 441.2,1556.4 441.2,1570.9 470.2,1570.9 484.6,1585.4 
							499.1,1585.4 499.1,1570.9 						"/>
						<polygon class="st1" points="455.7,1035.9 455.7,1021.4 441.2,1021.4 441.2,1007 426.8,1021.4 441.2,1035.9 						"/>
						<polygon class="st1" points="397.9,1715.5 383.4,1701 368.9,1701 354.5,1686.6 296.6,1686.6 296.6,1701 311.1,1715.5 
							296.6,1730 354.5,1730 368.9,1744.4 383.4,1744.4 368.9,1730 368.9,1715.5 						"/>
						<polygon class="st1" points="253.3,1570.9 267.7,1570.9 282.2,1556.4 267.7,1556.4 						"/>
						<polygon class="st1" points="238.8,1498.6 238.8,1484.1 224.3,1498.6 						"/>
						<polygon class="st1" points="470.2,1035.9 455.7,1035.9 470.2,1050.3 						"/>
						<polygon class="st1" points="224.3,1513.1 224.3,1498.6 209.9,1513.1 						"/>
					</g>
					<g>
						<polygon class="st1" points="397.9,1469.7 368.9,1440.8 368.9,1426.3 354.5,1411.8 354.5,1382.9 368.9,1368.5 368.9,1296.2 
							383.4,1281.7 383.4,1252.8 368.9,1238.3 368.9,1238.3 383.4,1223.9 397.9,1223.9 412.3,1209.4 383.4,1209.4 354.5,1238.3 
							368.9,1252.8 368.9,1267.2 354.5,1281.7 354.5,1325.1 325.6,1354 325.6,1411.8 311.1,1426.3 325.6,1426.3 412.3,1513.1 
							412.3,1498.6 397.9,1484.1 						"/>
						<polygon class="st1" points="311.1,1701 325.6,1715.5 340,1715.5 325.6,1701 						"/>
					</g>
					<path class="st1" d="M889.5,1382.9"/>
				</g>
			</g>
		</g>
		<g>
			<g>
				<defs>
					<rect id="SVGID_3_" y="0" width="1200" height="1920.4"/>
				</defs>
				<clipPath id="SVGID_4_">
					<use xlink:href="#SVGID_3_"  style="overflow:visible;"/>
				</clipPath>
			</g>
		</g>
		<g>
			<g>
				<defs>
					<rect id="SVGID_5_" y="0" width="1200" height="1920.4"/>
				</defs>
				<clipPath id="SVGID_6_">
					<use xlink:href="#SVGID_5_"  style="overflow:visible;"/>
				</clipPath>
			</g>
		</g>
	</g>
</g>
<g>
	<g>
		<g>
			<path class="st2" d="M572.6,631.2h-6.5l-1.1,3.6h-2.3l5.4-16.6h2.5l5.6,16.6h-2.4L572.6,631.2z M572.1,629.3l-2.8-8.6l-2.6,8.6
				H572.1z"/>
			<path class="st2" d="M580.9,623.1v11.7h-1.8v-16.4h1.8l4.4,12.3l4.4-12.3h1.7v16.4h-1.9v-11.7l-4.2,11.7H585L580.9,623.1z"/>
			<path class="st2" d="M596.6,623.1v11.7h-1.8v-16.4h1.8l4.4,12.3l4.4-12.3h1.7v16.4h-1.9v-11.7l-4.2,11.7h-0.3L596.6,623.1z"/>
			<path class="st2" d="M619.9,631.2h-6.5l-1.1,3.6H610l5.4-16.6h2.5l5.6,16.6h-2.4L619.9,631.2z M619.3,629.3l-2.8-8.6l-2.6,8.6
				H619.3z"/>
			<path class="st2" d="M629.3,623.1v11.7h-2v-16.4h1.4l6.7,11.6v-11.6h2v16.4h-1.3L629.3,623.1z"/>
		</g>
		<circle class="st2" cx="547.5" cy="627.9" r="8.4"/>
	</g>
	<g>
		<g>
			<path class="st2" d="M477.1,563.3l-0.2-2.2c1.5,0.9,3.2,1.5,5,1.5c2.2,0,3.6-1,3.6-2.9c0-1.4-0.7-2.2-3.3-3l-0.7-0.2
				c-2.8-0.9-4-2-4-4.4c0-2.9,1.9-4.6,5.4-4.6c1.6,0,3.1,0.5,4.1,1l0.2,2.1c-1.3-0.7-2.9-1.1-4.3-1.1c-2.2,0-3.3,1.1-3.3,2.7
				c0,1.3,0.7,2.1,2.9,2.8l0.6,0.2c3.4,1.1,4.5,2.2,4.5,4.6c0,3.1-2.2,4.8-5.8,4.8C479.9,564.5,478.1,564,477.1,563.3z"/>
			<path class="st2" d="M501.2,560.7h-6.5l-1.1,3.6h-2.3l5.4-16.6h2.5l5.6,16.6h-2.4L501.2,560.7z M500.6,558.8l-2.8-8.6l-2.6,8.6
				H500.6z"/>
			<path class="st2" d="M509,547.8h2.1v14.6h8.1v1.9H509V547.8z"/>
			<path class="st2" d="M530.5,549.7v14.6h-2.1v-14.6h-5v-1.9h12.1v1.9H530.5z"/>
		</g>
		<circle class="st2" cx="460.2" cy="557.4" r="8.4"/>
	</g>
	<g>
		<g>
			<path class="st2" d="M487.1,1005.7l-2.4,2.9v4.7h-2.1v-16.4h2.1v9l7.2-9h2.4l-5.7,7l6.4,9.4h-2.6L487.1,1005.7z"/>
			<path class="st2" d="M506.8,1009.6h-6.5l-1.1,3.6h-2.3l5.4-16.6h2.5l5.6,16.6H508L506.8,1009.6z M506.2,1007.8l-2.8-8.6l-2.6,8.6
				H506.2z"/>
			<path class="st2" d="M516.4,1013.3h-2.1v-16.4h4.4c3.4,0,5.9,2,5.9,5.7c0,2.3-1,4.1-2.7,5.1l4,5.6h-2.7l-3.6-4.9
				c-0.2,0-0.5,0-0.8,0h-2.5L516.4,1013.3L516.4,1013.3z M518.3,1006.5c2.8,0,4.1-1.4,4.1-3.8c0-2.5-1.4-4-4.1-4h-1.9v7.8H518.3z"/>
			<path class="st2" d="M538.3,1009.6h-6.5l-1.1,3.6h-2.3l5.4-16.6h2.5l5.6,16.6h-2.4L538.3,1009.6z M537.7,1007.8l-2.8-8.6
				l-2.6,8.6H537.7z"/>
			<path class="st2" d="M550.1,1005.7l-2.4,2.9v4.7h-2.1v-16.4h2.1v9l7.2-9h2.4l-5.7,7l6.4,9.4h-2.6L550.1,1005.7z"/>
		</g>
		<circle class="st2" cx="465.9" cy="1006.4" r="8.4"/>
	</g>
	<g>
		<g>
			<path class="st2" d="M435.7,1148.7v14.6h-2.1v-14.6h-5v-1.9h12.1v1.9H435.7z"/>
			<path class="st2" d="M453.7,1159.6h-6.5l-1.1,3.6h-2.3l5.4-16.6h2.5l5.6,16.6h-2.4L453.7,1159.6z M453.1,1157.8l-2.8-8.6
				l-2.6,8.6H453.1z"/>
			<path class="st2" d="M461.6,1146.8h9.5v1.9h-7.4v6.5h6.6v1.9h-6.6v6.2h-2.1V1146.8z"/>
			<path class="st2" d="M476.7,1146.8h10.4v1.7h-4.2v13.1h4.2v1.7h-10.4v-1.7h4.1v-13.1h-4.1V1146.8z"/>
			<path class="st2" d="M493,1146.8h2.1v14.6h8.1v1.9H493V1146.8z"/>
			<path class="st2" d="M516.7,1159.6h-6.5l-1.1,3.6h-2.3l5.4-16.6h2.5l5.6,16.6h-2.4L516.7,1159.6z M516.1,1157.8l-2.8-8.6
				l-2.6,8.6H516.1z"/>
			<path class="st2" d="M532.5,1156.2h-6.6v7.1h-2.1v-16.4h2.1v7.5h6.6v-7.5h2.1v16.4h-2.1V1156.2z"/>
		</g>
		<circle class="st2" cx="412.8" cy="1156.3" r="8.4"/>
	</g>
	<g>
		<g>
			<path class="st2" d="M468,1265.3l-0.2-2.2c1.5,0.9,3.2,1.5,5,1.5c2.2,0,3.6-1,3.6-2.9c0-1.4-0.7-2.2-3.3-3l-0.7-0.2
				c-2.8-0.9-4-2-4-4.4c0-2.9,1.9-4.6,5.4-4.6c1.6,0,3.1,0.5,4.1,1l0.2,2.1c-1.3-0.7-2.9-1.1-4.3-1.1c-2.2,0-3.3,1.1-3.3,2.7
				c0,1.3,0.7,2.1,2.9,2.8l0.6,0.2c3.4,1.1,4.5,2.2,4.5,4.6c0,3.1-2.2,4.8-5.8,4.8C470.8,1266.5,469,1265.9,468,1265.3z"/>
			<path class="st2" d="M492.1,1259.2h-6.6v7.1h-2.1v-16.4h2.1v7.5h6.6v-7.5h2.1v16.4h-2.1V1259.2z"/>
			<path class="st2" d="M498.4,1258.1c0-5.4,2.5-8.6,6.3-8.6s6,3.2,6,8.6c0,5.7-2.7,8.5-6.3,8.5
				C500.7,1266.6,498.4,1263.6,498.4,1258.1z M508.6,1258c0-4-1.5-6.6-4-6.6c-2.3,0-4,2.3-4,6.6c0,4.4,1.6,6.6,4,6.6
				C506.9,1264.6,508.6,1262.4,508.6,1258z"/>
			<path class="st2" d="M520.3,1266.2h-5v-16.4h4.5c3.4,0,5.3,1.4,5.3,4.2c0,1.7-0.6,3.1-2.8,3.8c2.7,0.5,3.6,1.9,3.6,4
				C526,1264.9,523.8,1266.2,520.3,1266.2z M519.5,1257.1c2.4,0,3.6-0.8,3.6-2.7c0-2-1.2-2.8-3.6-2.8h-2v5.6L519.5,1257.1
				L519.5,1257.1z M520,1264.5c2.6,0,3.7-0.8,3.7-2.9c0-1.9-1.3-2.7-3.8-2.7h-2.5v5.6H520z"/>
			<path class="st2" d="M539.3,1262.6h-6.5l-1.1,3.6h-2.3l5.4-16.6h2.5l5.6,16.6h-2.4L539.3,1262.6z M538.8,1260.8l-2.8-8.6
				l-2.6,8.6H538.8z"/>
			<path class="st2" d="M551.1,1258.7l-2.4,2.9v4.7h-2.1v-16.4h2.1v9l7.2-9h2.4l-5.7,7l6.4,9.4h-2.6L551.1,1258.7z"/>
		</g>
		<circle class="st2" cx="451.2" cy="1259.3" r="8.4"/>
	</g>
	<g>
		<g>
			<path class="st2" d="M496.1,1360.7h-6.5l-1.1,3.6h-2.3l5.4-16.6h2.5l5.6,16.6h-2.4L496.1,1360.7z M495.5,1358.8l-2.8-8.6
				l-2.6,8.6H495.5z"/>
			<path class="st2" d="M503.1,1346.9h6.6v15.8h4.5v1.7h-11.1v-1.7h4.5v-14.1h-4.5V1346.9z"/>
			<path class="st2" d="M520,1356.6h8.6v1.9H520V1356.6z"/>
			<path class="st2" d="M536,1347.9h8v8.3c0,6.3-2.3,8.3-6.8,8.3c-0.7,0-1.3-0.1-2-0.3l-0.2-2c0.7,0.2,1.3,0.3,1.9,0.3
				c3.9,0,5-2,5-6.5v-6.2H536V1347.9z"/>
			<path class="st2" d="M559.1,1360.7h-6.5l-1.1,3.6h-2.3l5.4-16.6h2.5l5.6,16.6h-2.4L559.1,1360.7z M558.5,1358.8l-2.8-8.6
				l-2.6,8.6H558.5z"/>
			<path class="st2" d="M566.9,1347.9h9.5v1.9H569v6.5h6.6v1.9H569v6.2h-2.1V1347.9z"/>
			<path class="st2" d="M590.6,1360.7H584l-1.1,3.6h-2.3l5.4-16.6h2.5l5.6,16.6h-2.4L590.6,1360.7z M590,1358.8l-2.8-8.6l-2.6,8.6
				H590z"/>
			<path class="st2" d="M600.2,1364.3h-2.1v-16.4h4.4c3.4,0,5.9,2,5.9,5.7c0,2.3-1,4.1-2.7,5.1l4,5.6H607l-3.6-4.9
				c-0.2,0-0.5,0-0.8,0h-2.5L600.2,1364.3L600.2,1364.3z M602.1,1357.6c2.8,0,4.1-1.4,4.1-3.8c0-2.5-1.4-4-4.1-4h-1.9v7.8H602.1z"/>
		</g>
		<circle class="st2" cx="628.9" cy="1357.4" r="8.4"/>
	</g>
	<g>
		<g>
			<path class="st2" d="M184.2,1600.9h-6.5l-1.1,3.6h-2.3l5.4-16.6h2.5l5.6,16.6h-2.4L184.2,1600.9z M183.6,1599l-2.8-8.6l-2.6,8.6
				H183.6z"/>
			<path class="st2" d="M200.8,1603l3.3,4.9h-2.5l-2.5-3.6c-0.8,0.4-1.6,0.6-2.5,0.6c-3.7,0-6-2.9-6-8.5c0-5.4,2.5-8.6,6.3-8.6
				s6,3.2,6,8.6C202.9,1599.4,202.1,1601.6,200.8,1603z M196.7,1602.9c0.4,0,0.9-0.1,1.3-0.3l-2.8-4h2.5l1.8,2.7
				c0.7-1.1,1.2-2.7,1.2-4.9c0-4-1.5-6.6-4-6.6c-2.3,0-4,2.3-4,6.6C192.7,1600.7,194.3,1602.9,196.7,1602.9z"/>
			<path class="st2" d="M215.7,1600.9h-6.5l-1.1,3.6h-2.3l5.4-16.6h2.5l5.6,16.6h-2.4L215.7,1600.9z M215.1,1599l-2.8-8.6l-2.6,8.6
				H215.1z"/>
			<path class="st2" d="M228.2,1604.5h-5v-16.4h4.5c3.4,0,5.3,1.4,5.3,4.2c0,1.7-0.6,3.1-2.8,3.8c2.7,0.5,3.6,1.9,3.6,4
				C233.9,1603.2,231.7,1604.5,228.2,1604.5z M227.4,1595.4c2.4,0,3.6-0.8,3.6-2.7c0-2-1.2-2.8-3.6-2.8h-2v5.6L227.4,1595.4
				L227.4,1595.4z M227.9,1602.7c2.6,0,3.7-0.8,3.7-2.9c0-1.9-1.3-2.7-3.8-2.7h-2.5v5.6H227.9z"/>
			<path class="st2" d="M247.2,1600.9h-6.5l-1.1,3.6h-2.3l5.4-16.6h2.5l5.6,16.6h-2.4L247.2,1600.9z M246.6,1599l-2.8-8.6l-2.6,8.6
				H246.6z"/>
		</g>
		<circle class="st2" cx="159" cy="1597.6" r="8.4"/>
	</g>
	<g>
		<g>
			<path class="st2" d="M466.5,1410.9v11.7h-1.8v-16.4h1.8l4.4,12.3l4.4-12.3h1.7v16.4h-1.9v-11.7l-4.2,11.7h-0.3L466.5,1410.9z"/>
			<path class="st2" d="M489.8,1419h-6.5l-1.1,3.6h-2.3l5.4-16.6h2.5l5.6,16.6H491L489.8,1419z M489.2,1417.1l-2.8-8.6l-2.6,8.6
				H489.2z"/>
			<path class="st2" d="M505.5,1419H499l-1.1,3.6h-2.3l5.4-16.6h2.5l5.6,16.6h-2.4L505.5,1419z M504.9,1417.1l-2.8-8.6l-2.6,8.6
				H504.9z"/>
			<path class="st2" d="M514.9,1410.9v11.7h-2v-16.4h1.4l6.7,11.6v-11.6h2v16.4h-1.3L514.9,1410.9z"/>
		</g>
		<circle class="st2" cx="448.9" cy="1415.7" r="8.4"/>
	</g>
	<g>
		<g>
			<path class="st2" d="M506,291.2h10.4v1.7h-4.2V306h4.2v1.7H506V306h4.1v-13.1H506V291.2z"/>
			<path class="st2" d="M524.1,307.6H522v-16.4h4.4c3.4,0,5.9,2,5.9,5.7c0,2.3-1,4.1-2.7,5.1l4,5.6H531l-3.6-4.9c-0.2,0-0.5,0-0.8,0
				h-2.5L524.1,307.6L524.1,307.6z M526,300.9c2.8,0,4.1-1.4,4.1-3.8c0-2.5-1.4-4-4.1-4h-1.9v7.8H526z"/>
			<path class="st2" d="M542.7,307.6h-5v-16.4h4.5c3.4,0,5.3,1.4,5.3,4.2c0,1.7-0.6,3.1-2.8,3.8c2.7,0.5,3.6,1.9,3.6,4
				C548.4,306.3,546.2,307.6,542.7,307.6z M541.9,298.5c2.4,0,3.6-0.8,3.6-2.7c0-2-1.2-2.8-3.6-2.8h-2v5.6h2V298.5z M542.5,305.9
				c2.6,0,3.7-0.8,3.7-2.9c0-1.9-1.3-2.7-3.8-2.7h-2.5v5.6H542.5z"/>
			<path class="st2" d="M553.3,291.2h10.4v1.7h-4.2V306h4.2v1.7h-10.4V306h4.1v-13.1h-4.1V291.2z"/>
			<path class="st2" d="M569,291.2h4.6c5,0,6.9,3.2,6.9,8.1c0,5.1-2.2,8.3-6.9,8.3H569V291.2z M573.2,305.7c3.5,0,5-2.2,5-6.4
				c0-4-1.3-6.2-5-6.2h-2.1v12.7h2.1V305.7z"/>
		</g>
		<circle class="st2" cx="489.3" cy="300.7" r="8.4"/>
	</g>
	<g>
		<g>
			<path class="st2" d="M553.1,1755.3h-6.5l-1.1,3.6h-2.3l5.4-16.6h2.5l5.6,16.6h-2.4L553.1,1755.3z M552.5,1753.5l-2.8-8.6
				l-2.6,8.6H552.5z"/>
			<path class="st2" d="M560.1,1741.5h6.6v15.8h4.5v1.7h-11.1v-1.7h4.5v-14.1h-4.5V1741.5z"/>
			<path class="st2" d="M577.1,1751.2h8.6v1.9h-8.6V1751.2z"/>
			<path class="st2" d="M592.8,1747.3v11.7H591v-16.4h1.8l4.4,12.3l4.4-12.3h1.7v16.4h-1.9v-11.7l-4.2,11.7H597L592.8,1747.3z"/>
			<path class="st2" d="M607.3,1752.8v-10.3h2.1v10.3c0,3.5,1.3,4.5,3.4,4.5s3.4-1.1,3.4-4.7v-10.1h2.1v10c0,4.8-2.2,6.7-5.6,6.7
				C609.4,1759.2,607.3,1757.7,607.3,1752.8z"/>
			<path class="st2" d="M623.4,1742.5h4.6c5,0,6.9,3.2,6.9,8.1c0,5.1-2.2,8.3-6.9,8.3h-4.5L623.4,1742.5L623.4,1742.5z
				 M627.6,1757.1c3.5,0,5-2.2,5-6.4c0-4-1.3-6.2-5-6.2h-2.1v12.7L627.6,1757.1L627.6,1757.1z"/>
			<path class="st2" d="M647.6,1755.3h-6.5l-1.1,3.6h-2.3l5.4-16.6h2.5l5.6,16.6h-2.4L647.6,1755.3z M647,1753.5l-2.8-8.6l-2.6,8.6
				H647z"/>
			<path class="st2" d="M660.2,1746.4l-3.2,12.5h-2l-2.1-16.4h1.9l1.6,12.8l3.3-12.8h1.3l3.2,12.8l1.5-12.8h1.8l-2.1,16.4h-2
				L660.2,1746.4z"/>
			<path class="st2" d="M675.9,1746.4l-3.2,12.5h-2l-2.1-16.4h1.9l1.6,12.8l3.3-12.8h1.3l3.2,12.8l1.5-12.8h1.8l-2.1,16.4h-2
				L675.9,1746.4z"/>
			<path class="st2" d="M694.8,1755.3h-6.5l-1.1,3.6h-2.3l5.4-16.6h2.5l5.6,16.6H696L694.8,1755.3z M694.2,1753.5l-2.8-8.6l-2.6,8.6
				H694.2z"/>
			<path class="st2" d="M704.5,1758.9h-2.1v-16.4h4.4c3.4,0,5.9,2,5.9,5.7c0,2.3-1,4.1-2.7,5.1l4,5.6h-2.7l-3.6-4.9
				c-0.2,0-0.5,0-0.8,0h-2.5L704.5,1758.9L704.5,1758.9z M706.3,1752.2c2.8,0,4.1-1.4,4.1-3.8c0-2.5-1.4-4-4.1-4h-1.9v7.8H706.3z"/>
			<path class="st2" d="M726.3,1755.3h-6.5l-1.1,3.6h-2.3l5.4-16.6h2.5l5.6,16.6h-2.4L726.3,1755.3z M725.7,1753.5l-2.8-8.6
				l-2.6,8.6H725.7z"/>
		</g>
		<circle class="st2" cx="528" cy="1752" r="8.4"/>
	</g>
	<g>
		<g>
			<path class="st2" d="M708.8,545h-12.2v-0.3l8.8-14.2h-8.1v-1.9h11.3v0.3l-8.9,14.2h9v1.9H708.8z"/>
			<path class="st2" d="M721.9,541.4h-6.5l-1.1,3.6H712l5.4-16.6h2.5l5.6,16.6H723L721.9,541.4z M721.3,539.5l-2.8-8.6l-2.6,8.6
				H721.3z"/>
			<path class="st2" d="M731.5,545h-2.1v-16.4h4.4c3.4,0,5.9,2,5.9,5.7c0,2.3-1,4.1-2.7,5.1l4,5.6h-2.7l-3.6-4.9c-0.2,0-0.5,0-0.8,0
				h-2.5L731.5,545L731.5,545z M733.4,538.3c2.8,0,4.1-1.4,4.1-3.8c0-2.5-1.4-4-4.1-4h-1.9v7.8H733.4z"/>
			<path class="st2" d="M754.2,543.5l3.3,4.9H755l-2.5-3.6c-0.8,0.4-1.6,0.6-2.5,0.6c-3.7,0-6-2.9-6-8.5c0-5.4,2.5-8.6,6.3-8.6
				s6,3.2,6,8.6C756.3,539.9,755.5,542.1,754.2,543.5z M750.1,543.4c0.4,0,0.9-0.1,1.3-0.3l-2.8-4h2.5l1.8,2.7
				c0.7-1.1,1.2-2.7,1.2-4.9c0-4-1.5-6.6-4-6.6c-2.3,0-4,2.3-4,6.6S747.7,543.4,750.1,543.4z"/>
			<path class="st2" d="M769.1,541.4h-6.5l-1.1,3.6h-2.3l5.4-16.6h2.5l5.6,16.6h-2.4L769.1,541.4z M768.5,539.5l-2.8-8.6l-2.6,8.6
				H768.5z"/>
		</g>
		<circle class="st2" cx="681" cy="538.1" r="8.4"/>
	</g>
	<g>
		<g>
			<path class="st2" d="M844.7,675.1h-6.5l-1.1,3.6h-2.3l5.4-16.6h2.5l5.6,16.6h-2.4L844.7,675.1z M844.1,673.2l-2.8-8.6l-2.6,8.6
				H844.1z"/>
			<path class="st2" d="M863.1,678.7H851v-0.3l8.8-14.2h-8.1v-1.9H863v0.3l-8.9,14.2h9V678.7z"/>
			<path class="st2" d="M870.1,678.7H868v-16.4h4.4c3.4,0,5.9,2,5.9,5.7c0,2.3-1,4.1-2.7,5.1l4,5.6h-2.7l-3.6-4.9
				c-0.2,0-0.5,0-0.8,0H870L870.1,678.7L870.1,678.7z M871.9,671.9c2.8,0,4.1-1.4,4.1-3.8c0-2.5-1.4-4-4.1-4H870v7.8H871.9z"/>
			<path class="st2" d="M891.9,675.1h-6.5l-1.1,3.6H882l5.4-16.6h2.5l5.6,16.6h-2.4L891.9,675.1z M891.3,673.2l-2.8-8.6l-2.6,8.6
				H891.3z"/>
			<path class="st2" d="M908.5,677.2l3.3,4.9h-2.5l-2.5-3.6c-0.8,0.4-1.6,0.6-2.5,0.6c-3.7,0-6-2.9-6-8.5c0-5.4,2.5-8.6,6.3-8.6
				s6,3.2,6,8.6C910.6,673.6,909.8,675.8,908.5,677.2z M904.4,677c0.4,0,0.9-0.1,1.3-0.3l-2.8-4h2.5l1.8,2.7
				c0.7-1.1,1.2-2.7,1.2-4.9c0-4-1.5-6.6-4-6.6c-2.3,0-4,2.3-4,6.6C900.4,674.9,902,677,904.4,677z"/>
		</g>
		<circle class="st2" cx="928" cy="671.8" r="8.4"/>
	</g>
	<g>
		<g>
			<path class="st2" d="M654.1,467.7H645v-0.3l6.7-10.7h-6.2v-1.4h8.5v0.2l-6.7,10.7h6.8V467.7z"/>
			<path class="st2" d="M663.4,466.6c-0.6,0.7-1.6,1.2-2.9,1.2c-1.8,0-3-0.7-3-2.6s1.6-3,5.9-3.2c-0.1-1.5-1-2.1-2.4-2.1
				c-1,0-1.9,0.3-2.8,1l0.3-1.6c0.8-0.5,1.7-0.8,2.8-0.8c2.4,0,3.7,1.3,3.7,3.5v5.7h-1.2L663.4,466.6z M660.9,466.5
				c0.8,0,1.8-0.4,2.4-1v-2.4c-3,0.2-4.4,0.8-4.4,2C658.9,466.1,659.6,466.5,660.9,466.5z"/>
			<path class="st2" d="M669.4,458.7h4.2v2.5c1.2-1.8,2.7-2.6,4.4-2.6l0.1,1.6c-1.6,0-3.2,0.9-4.5,2.4v3.9h3.9v1.3h-8.1v-1.3h2.6
				V460h-2.6L669.4,458.7L669.4,458.7z"/>
			<path class="st2" d="M689,471h-1.6v-3.9c-0.6,0.5-1.4,0.7-2.4,0.7c-2.4,0-4-1.6-4-4.6c0-2.9,1.8-4.7,4.3-4.7c1,0,1.8,0.2,2.5,0.7
				l0.4-0.6h0.9V471H689z M685.3,466.5c0.9,0,1.5-0.3,2.1-0.8v-5.2c-0.6-0.4-1.2-0.6-2.1-0.6c-1.7,0-2.8,1.3-2.8,3.3
				C682.6,465.2,683.6,466.5,685.3,466.5z"/>
			<path class="st2" d="M699.1,466.6c-0.6,0.7-1.6,1.2-2.9,1.2c-1.8,0-3-0.7-3-2.6s1.6-3,5.9-3.2c-0.1-1.5-1-2.1-2.4-2.1
				c-1,0-1.9,0.3-2.8,1l0.3-1.6c0.8-0.5,1.7-0.8,2.8-0.8c2.4,0,3.7,1.3,3.7,3.5v5.7h-1.2L699.1,466.6z M696.6,466.5
				c0.9,0,1.8-0.4,2.4-1v-2.4c-3,0.2-4.4,0.8-4.4,2C694.6,466.1,695.3,466.5,696.6,466.5z"/>
			<path class="st2" d="M647.5,485h-1.6v-12.4h3.3c2.5,0,4.5,1.5,4.5,4.3c0,1.7-0.8,3.1-2.1,3.9l3,4.2h-2l-2.7-3.7
				c-0.2,0-0.4,0-0.6,0h-1.9L647.5,485L647.5,485z M648.9,479.9c2.1,0,3.1-1.1,3.1-2.8c0-1.9-1.1-3.1-3.1-3.1h-1.4v5.9H648.9z"/>
			<path class="st2" d="M657.4,476h5v7.8h3.3v1.3h-8.4v-1.3h3.5v-6.5h-3.5V476H657.4z M662.5,471.7v1.8h-1.9v-1.8H662.5z"/>
			<path class="st2" d="M674.1,485h-1.4l-3.9-9h1.7l2.9,6.9l3-6.9h1.6L674.1,485z"/>
			<path class="st2" d="M685.7,485.2c-2.4,0-4.5-1.2-4.5-4.6c0-3.2,2-4.7,4.2-4.7c2.7,0,3.9,1.9,3.9,4.9h-6.6
				c0.1,2.3,1.6,3.1,3.2,3.1c1.1,0,2-0.2,2.8-0.7l-0.2,1.4C687.9,485,686.9,485.2,685.7,485.2z M682.8,479.6h5.1
				c-0.2-1.7-1.1-2.5-2.5-2.5C684.3,477.2,683.1,477.8,682.8,479.6z"/>
			<path class="st2" d="M693.2,476h4.2v2.5c1.2-1.8,2.7-2.6,4.4-2.6l0.1,1.6c-1.6,0-3.2,0.9-4.5,2.4v3.9h3.9v1.3h-8.1v-1.3h2.6v-6.5
				h-2.6L693.2,476L693.2,476z"/>
		</g>
	</g>
	<g>
		<g>
			<path class="st2" d="M286,416.1h6.1v6.3c0,4.8-1.8,6.3-5.2,6.3c-0.5,0-1-0.1-1.5-0.2l-0.2-1.5c0.5,0.2,1,0.3,1.5,0.3
				c2.9,0,3.8-1.5,3.8-4.9v-4.7H286V416.1z"/>
			<path class="st2" d="M296.8,424c0-2.9,1.8-4.7,4.2-4.7c2.7,0,4.1,1.8,4.1,4.6c0,2.8-1.6,4.7-4.2,4.7
				C298.3,428.7,296.8,426.9,296.8,424z M303.5,424c0-2.1-1-3.3-2.6-3.3c-1.5,0-2.6,1.2-2.6,3.3c0,2.2,1.1,3.3,2.6,3.3
				C302.5,427.3,303.5,426.2,303.5,424z"/>
			<path class="st2" d="M308.8,419.5h4.2v2.5c1.2-1.8,2.7-2.6,4.4-2.6l0.1,1.6c-1.6,0-3.2,0.9-4.5,2.4v3.9h3.9v1.3h-8.1v-1.3h2.6
				v-6.5h-2.6V419.5z"/>
			<path class="st2" d="M327.1,427.8c-0.7,0.5-1.5,0.9-2.6,0.9c-2.4,0-4-1.6-4-4.6c0-2.9,1.8-4.7,4.3-4.7c0.9,0,1.5,0.2,2.2,0.5
				v-4.6h1.6v13.2h-1L327.1,427.8z M324.8,427.3c0.9,0,1.5-0.3,2.1-0.8v-5.2c-0.6-0.4-1.2-0.6-2.1-0.6c-1.7,0-2.8,1.3-2.8,3.3
				C322,426.1,323.1,427.3,324.8,427.3z"/>
			<path class="st2" d="M338.5,427.5c-0.6,0.7-1.6,1.2-2.9,1.2c-1.8,0-3-0.7-3-2.6s1.6-3,5.9-3.2c-0.1-1.5-1-2.1-2.4-2.1
				c-1,0-1.9,0.3-2.8,1l0.3-1.6c0.8-0.5,1.7-0.8,2.8-0.8c2.4,0,3.7,1.3,3.7,3.5v5.7h-1.2L338.5,427.5z M336,427.4
				c0.9,0,1.8-0.4,2.4-1V424c-3,0.2-4.4,0.8-4.4,2C334.1,426.9,334.7,427.4,336,427.4z"/>
			<path class="st2" d="M346.5,421.8v6.7h-1.6v-9h1.2l0.3,1c0.8-0.7,1.7-1.1,2.7-1.1c1.9,0,3.1,1.1,3.1,3.7v5.5h-1.6v-5.2
				c0-1.8-0.7-2.4-2-2.4C347.9,420.9,347.2,421.2,346.5,421.8z"/>
			<path class="st2" d="M298.8,445.9h-1.6v-12.4h3.3c2.5,0,4.5,1.5,4.5,4.3c0,1.7-0.8,3.1-2.1,3.9l3,4.2h-2l-2.7-3.7
				c-0.2,0-0.4,0-0.6,0h-1.9v3.7H298.8z M300.2,440.8c2.1,0,3.1-1.1,3.1-2.8c0-1.9-1.1-3.1-3.1-3.1h-1.4v5.9H300.2z"/>
			<path class="st2" d="M308.7,436.9h5v7.8h3.3v1.3h-8.4v-1.3h3.5v-6.5h-3.5v-1.3H308.7z M313.8,432.5v1.8h-1.9v-1.8H313.8z"/>
			<path class="st2" d="M325.4,445.9H324l-3.9-9h1.7l2.9,6.9l3-6.9h1.6L325.4,445.9z"/>
			<path class="st2" d="M337,446c-2.4,0-4.5-1.2-4.5-4.6c0-3.2,2-4.7,4.2-4.7c2.7,0,3.9,1.9,3.9,4.9H334c0.1,2.3,1.6,3.1,3.2,3.1
				c1.1,0,2-0.2,2.8-0.7l-0.2,1.4C339.2,445.8,338.2,446,337,446z M334.1,440.5h5.1c-0.2-1.7-1.1-2.5-2.5-2.5
				C335.6,438,334.4,438.7,334.1,440.5z"/>
			<path class="st2" d="M344.5,436.9h4.2v2.5c1.2-1.8,2.7-2.6,4.4-2.6l0.1,1.6c-1.6,0-3.2,0.9-4.5,2.4v3.9h3.9v1.3h-8.1v-1.3h2.6
				v-6.5h-2.6V436.9z"/>
		</g>
	</g>
	<g>
		<g>
			<path class="st2" d="M429.5,802.9v8.8h-1.3v-12.4h1.4l3.3,9.3l3.3-9.3h1.3v12.4h-1.4v-8.8l-3.2,8.8h-0.3L429.5,802.9z"/>
			<path class="st2" d="M446.8,810.7c-0.8,0.7-1.7,1.1-2.7,1.1c-1.9,0-3.1-1.1-3.1-3.7v-5.5h1.6v5.2c0,1.8,0.7,2.4,2,2.4
				c0.8,0,1.4-0.3,2.2-0.9v-6.7h1.6v9h-1.2L446.8,810.7z"/>
			<path class="st2" d="M453.5,802.7h5.1v8.2c0,3.2-1.5,4.2-3.7,4.2c-0.6,0-1.1-0.1-1.6-0.3l-0.1-1.4c0.6,0.2,1,0.3,1.5,0.3
				c1.7,0,2.4-0.8,2.4-2.7v-7h-3.6L453.5,802.7L453.5,802.7z M458.6,798.4v1.8h-1.9v-1.8H458.6z"/>
			<path class="st2" d="M468.8,811.9c-2.4,0-4.5-1.2-4.5-4.6c0-3.2,2-4.7,4.2-4.7c2.7,0,3.9,1.9,3.9,4.9h-6.6
				c0.1,2.3,1.6,3.1,3.2,3.1c1.1,0,2-0.2,2.8-0.7l-0.2,1.4C471,811.7,470,811.9,468.8,811.9z M465.9,806.3h5.1
				c-0.2-1.7-1.1-2.5-2.5-2.5C467.4,803.8,466.2,804.5,465.9,806.3z"/>
			<path class="st2" d="M480.4,811.9c-1,0-1.8-0.2-2.5-0.7l-0.3,0.6h-0.9v-13.2h1.6v4.8c0.6-0.5,1.4-0.8,2.4-0.8c2.4,0,4,1.6,4,4.6
				C484.7,810,482.9,811.9,480.4,811.9z M478.2,804.8v5.2c0.6,0.4,1.2,0.6,2.1,0.6c1.7,0,2.8-1.3,2.8-3.3s-1.1-3.2-2.8-3.2
				C479.4,804,478.9,804.2,478.2,804.8z"/>
		</g>
	</g>
	<g>
		<g>
			<path class="st2" d="M435.2,755.7h-5v5.4h-1.6v-12.4h1.6v5.7h5v-5.7h1.6v12.4h-1.6V755.7z"/>
			<path class="st2" d="M440.5,752.1h5v7.8h3.3v1.3h-8.4v-1.3h3.5v-6.5h-3.5v-1.3H440.5z M445.6,747.7v1.8h-1.9v-1.8H445.6z"/>
			<path class="st2" d="M458.9,760.4c-0.7,0.5-1.5,0.9-2.6,0.9c-2.4,0-4-1.6-4-4.6c0-2.9,1.8-4.7,4.3-4.7c0.9,0,1.5,0.2,2.2,0.5
				v-4.6h1.6v13.2h-1L458.9,760.4z M456.5,759.9c0.9,0,1.5-0.3,2.1-0.8v-5.2c-0.6-0.4-1.2-0.6-2.1-0.6c-1.7,0-2.8,1.3-2.8,3.3
				C453.8,758.6,454.8,759.9,456.5,759.9z"/>
			<path class="st2" d="M470.3,760.1c-0.6,0.7-1.6,1.2-2.9,1.2c-1.8,0-3-0.7-3-2.6c0-1.9,1.6-3,5.9-3.2c-0.1-1.5-1-2.1-2.4-2.1
				c-1,0-1.9,0.3-2.8,1l0.3-1.6c0.8-0.5,1.7-0.8,2.8-0.8c2.4,0,3.7,1.3,3.7,3.5v5.7h-1.2L470.3,760.1z M467.8,760
				c0.9,0,1.8-0.4,2.4-1v-2.4c-3,0.2-4.4,0.8-4.4,2C465.8,759.5,466.5,760,467.8,760z"/>
			<path class="st2" d="M478.3,754.4v6.7h-1.6v-9h1.2l0.3,1c0.8-0.7,1.7-1.1,2.7-1.1c1.9,0,3.1,1.1,3.1,3.7v5.5h-1.6V756
				c0-1.8-0.7-2.4-2-2.4C479.7,753.5,479,753.8,478.3,754.4z"/>
		</g>
	</g>
	<g>
		<g>
			<path class="st2" d="M319.6,1050.9h-5v5.4H313v-12.4h1.6v5.7h5v-5.7h1.6v12.4h-1.6V1050.9z"/>
			<path class="st2" d="M330.8,1055.2c-0.6,0.7-1.6,1.2-2.9,1.2c-1.8,0-3-0.7-3-2.6s1.6-3,5.9-3.2c-0.1-1.5-1-2.1-2.4-2.1
				c-1,0-1.9,0.3-2.8,1l0.3-1.6c0.8-0.5,1.7-0.8,2.8-0.8c2.4,0,3.7,1.3,3.7,3.5v5.7h-1.2L330.8,1055.2z M328.3,1055.1
				c0.9,0,1.8-0.4,2.4-1v-2.4c-3,0.2-4.4,0.8-4.4,2C326.4,1054.6,327.1,1055.1,328.3,1055.1z"/>
			<path class="st2" d="M337.1,1055.7l-0.1-1.5c1,0.6,2.3,0.9,3.6,0.9c1.6,0,2.6-0.4,2.6-1.4c0-0.7-0.3-1.1-2.4-1.5l-0.3-0.1
				c-2.4-0.5-3.1-1.2-3.1-2.5c0-1.6,1.4-2.5,3.7-2.5c1.3,0,2.2,0.2,3,0.5l0.1,1.4c-0.9-0.4-2-0.6-3.2-0.6c-1.4,0-2.3,0.4-2.3,1.2
				c0,0.7,0.4,1,2.4,1.4l0.4,0.1c2.6,0.5,3.1,1.4,3.1,2.6c0,1.8-1.6,2.7-4.1,2.7C339.3,1056.4,338,1056.2,337.1,1055.7z"/>
			<path class="st2" d="M354.6,1055.2c-0.6,0.7-1.6,1.2-2.9,1.2c-1.8,0-3-0.7-3-2.6s1.6-3,5.9-3.2c-0.1-1.5-1-2.1-2.4-2.1
				c-1,0-1.9,0.3-2.8,1l0.3-1.6c0.8-0.5,1.7-0.8,2.8-0.8c2.4,0,3.7,1.3,3.7,3.5v5.7H355L354.6,1055.2z M352.1,1055.1
				c0.9,0,1.8-0.4,2.4-1v-2.4c-3,0.2-4.4,0.8-4.4,2C350.2,1054.6,350.9,1055.1,352.1,1055.1z"/>
		</g>
	</g>
	<g>
		<path class="st2" d="M437.8,196.7h-1.6v-4.3l-4.6-8.1h1.9l3.6,6.7l3.6-6.7h1.8l-4.6,8.1L437.8,196.7L437.8,196.7z"/>
		<path class="st2" d="M450.7,195.6c-0.6,0.7-1.6,1.2-2.9,1.2c-1.8,0-3-0.7-3-2.6c0-1.9,1.6-3,5.9-3.2c-0.1-1.5-1-2.1-2.4-2.1
			c-1,0-1.9,0.3-2.8,1l0.3-1.6c0.8-0.5,1.7-0.8,2.8-0.8c2.4,0,3.7,1.3,3.7,3.5v5.7H451L450.7,195.6z M448.2,195.5
			c0.9,0,1.8-0.4,2.4-1v-2.4c-3,0.2-4.4,0.8-4.4,2C446.3,195.1,447,195.5,448.2,195.5z"/>
		<path class="st2" d="M456.7,187.7h4.2v2.5c1.2-1.8,2.7-2.6,4.4-2.6l0.1,1.6c-1.6,0-3.2,0.9-4.5,2.4v3.9h3.9v1.3h-8.1v-1.3h2.6V189
			h-2.6V187.7z"/>
		<path class="st2" d="M469,189.8v6.9h-1.4v-9h1l0.3,0.9c0.6-0.6,1.2-1,2-1c1,0,1.7,0.4,2.1,1.2c0.7-0.7,1.4-1.2,2.3-1.2
			c1.6,0,2.4,1,2.4,3.3v5.8h-1.4v-5.5c0-1.7-0.5-2.3-1.4-2.3c-0.6,0-1,0.3-1.6,0.8c0.1,0.3,0.1,0.6,0.1,1v5.9H472v-5.5
			c0-1.7-0.5-2.3-1.4-2.3C470,188.9,469.6,189.3,469,189.8z"/>
		<path class="st2" d="M480.4,192.2c0-2.9,1.8-4.7,4.2-4.7c2.7,0,4.1,1.8,4.1,4.6s-1.6,4.7-4.2,4.7
			C481.9,196.9,480.4,195,480.4,192.2z M487.2,192.2c0-2.1-1-3.3-2.6-3.3c-1.5,0-2.6,1.2-2.6,3.3c0,2.2,1.1,3.3,2.6,3.3
			S487.2,194.3,487.2,192.2z"/>
		<path class="st2" d="M498.6,195.7c-0.8,0.7-1.7,1.1-2.7,1.1c-1.9,0-3.1-1.1-3.1-3.7v-5.5h1.6v5.2c0,1.8,0.7,2.4,2,2.4
			c0.8,0,1.4-0.3,2.2-0.9v-6.7h1.6v9H499L498.6,195.7z"/>
		<path class="st2" d="M507.8,192.5l-1.3,1.5v2.7h-1.6v-13.2h1.6v8.6l3.7-4.4h1.9l-3.2,3.6l3.9,5.4h-1.9L507.8,192.5z"/>
		<path class="st2" d="M434.8,214h-1.6v-12.4h3.3c2.5,0,4.5,1.5,4.5,4.3c0,1.7-0.8,3.1-2.1,3.9l3,4.2h-2l-2.7-3.7
			c-0.2,0-0.4,0-0.6,0h-1.9v3.7H434.8z M436.2,208.9c2.1,0,3.1-1.1,3.1-2.8c0-1.9-1.1-3.1-3.1-3.1h-1.4v5.9L436.2,208.9L436.2,208.9
			z"/>
		<path class="st2" d="M444.7,205h5v7.8h3.3v1.3h-8.4v-1.3h3.5v-6.5h-3.5V205H444.7z M449.8,200.7v1.8h-1.9v-1.8H449.8z"/>
		<path class="st2" d="M461.4,214H460l-3.9-9h1.7l2.9,6.9l3-6.9h1.6L461.4,214z"/>
		<path class="st2" d="M473,214.2c-2.4,0-4.5-1.2-4.5-4.6c0-3.2,2-4.7,4.2-4.7c2.7,0,3.9,1.9,3.9,4.9H470c0.1,2.3,1.6,3.1,3.2,3.1
			c1.1,0,2-0.2,2.8-0.7l-0.2,1.4C475.2,214,474.3,214.2,473,214.2z M470.1,208.6h5.1c-0.2-1.7-1.1-2.5-2.5-2.5
			C471.6,206.2,470.4,206.8,470.1,208.6z"/>
		<path class="st2" d="M480.5,205h4.2v2.5c1.2-1.8,2.7-2.6,4.4-2.6l0.1,1.6c-1.6,0-3.2,0.9-4.5,2.4v3.9h3.9v1.3h-8.1v-1.3h2.6v-6.5
			h-2.6V205z"/>
	</g>
</g>
</svg>
