<?xml version="1.0" encoding="UTF-8" standalone="no"?>
<svg width="1969px" height="1915px" viewBox="0 0 1969 1915" version="1.1" xmlns="http://www.w3.org/2000/svg" xmlns:xlink="http://www.w3.org/1999/xlink">
    <!-- Generator: Sketch 46.2 (44496) - http://www.bohemiancoding.com/sketch -->
    <title>topography</title>
    <desc>Created with Sketch.</desc>
    <defs></defs>
    <g id="Page-1" stroke="none" stroke-width="1" fill="none" fill-rule="evenodd">
        <g id="topography" transform="translate(-30.000000, 4.000000)">
            <g id="Topography" transform="translate(30.000000, 0.000000)">
                <g id="Group">
                    <g transform="translate(144.000000, 0.000000)" id="Shape" stroke-width="1.6067" stroke="#FFFFFF">
                        <polygon points="955 925.4 1027.3 997.7 1027.3 1026.7 1114.1 1113.4 1114.1 1142.3 1200.8 1229.1 1200.8 1258 1302.1 1359.2 1215.3 1446 1114.1 1446 940.6 1619.5 767 1619.5 477.8 1908.7 405.5 1908.7 362.2 1865.3 289.9 1865.3 246.5 1822 174.2 1822 116.3 1764.1 44 1764.1 44 1720.7 29.6 1706.3 0.7 1706.3 0.7 1590.6 73 1518.3 73 1388.2 116.3 1344.8 116.3 1243.6 174.2 1185.7 174.2 954.4 203.1 925.4 203.1 853.1 246.5 809.8 246.5 780.8 232 766.4 246.5 751.9 246.5 636.2 260.9 621.8 260.9 506.1 246.5 491.6 246.5 390.4 318.8 318.1 420 318.1 506.8 404.9 535.7 404.9 651.4 520.5 839.3 520.5 1012.9 347 1056.2 347 1171.9 231.3 1215.3 231.3 1331 115.7 1374.4 115.7 1490.1 0 1533.4 43.4 1533.4 115.7 1591.3 173.5 1591.3 231.3 1678 318.1 1634.7 361.5 1678 404.9 1750.3 332.6 1793.7 375.9 1764.8 404.9 1822.6 462.7 1822.6 491.6 1692.5 621.8 1634.7 621.8 1547.9 708.5 1475.6 708.5 1359.9 824.2 1287.6 824.2 1186.4 925.4"></polygon>
                        <polygon points="1764.8 404.9 1793.7 375.9 1750.3 332.6 1678 404.9 1634.7 361.5 1678 318.1 1591.3 231.3 1591.3 173.5 1533.4 115.7 1533.4 43.4 1490.1 0 1374.4 115.7 1331 115.7 1215.3 231.3 1171.9 231.3 1056.2 347 1012.9 347 839.3 520.5 651.4 520.5 535.7 404.9 506.8 404.9 420 318.1 333.2 318.1 260.9 390.4 260.9 477.2 289.9 506.1 289.9 535 318.8 563.9 347.7 563.9 376.6 592.9 362.2 592.9 347.7 578.4 318.8 578.4 304.3 592.9 304.3 621.8 289.9 636.2 289.9 737.5 304.3 751.9 304.3 780.8 232 853.1 232 882.1 246.5 896.5 333.2 896.5 318.8 911 260.9 911 246.5 925.4 246.5 939.9 260.9 954.4 260.9 1055.6 217.6 1099 217.6 1127.9 232 1142.3 275.4 1142.3 304.3 1171.3 289.9 1171.3 275.4 1156.8 217.6 1156.8 203.1 1171.3 203.1 1200.2 145.3 1258 145.3 1344.8 87.4 1402.6 87.4 1503.8 0.7 1590.6 0.7 1706.3 29.6 1706.3 44 1720.7 44 1764.1 116.3 1764.1 174.2 1822 246.5 1822 289.9 1865.3 362.2 1865.3 405.5 1908.7 477.8 1908.7 767 1619.5 940.6 1619.5 1114.1 1446 1215.3 1446 1302.1 1359.2 1200.8 1258 1200.8 1229.1 1114.1 1142.3 1114.1 1113.4 1027.3 1026.7 1027.3 997.7 955 925.4 1186.4 925.4 1287.6 824.2 1359.9 824.2 1475.6 708.5 1547.9 708.5 1634.7 621.8 1692.5 621.8 1822.6 491.6 1822.6 462.7"></polygon>
                        <polygon points="1764.8 404.9 1793.7 375.9 1750.3 332.6 1678 404.9 1634.7 361.5 1678 318.1 1591.3 231.3 1591.3 173.5 1533.4 115.7 1533.4 43.4 1490.1 0 1374.4 115.7 1331 115.7 1215.3 231.3 1171.9 231.3 1056.2 347 1012.9 347 839.3 520.5 651.4 520.5 535.7 404.9 506.8 404.9 434.5 332.6 333.2 332.6 289.9 375.9 289.9 477.2 304.3 491.6 304.3 535 318.8 549.5 347.7 549.5 391.1 592.9 420 592.9 405.5 607.3 362.2 607.3 347.7 592.9 333.2 592.9 318.8 607.3 318.8 636.2 304.3 650.7 304.3 723 318.8 737.5 318.8 751.9 333.2 737.5 362.2 737.5 347.7 751.9 333.2 751.9 318.8 766.4 362.2 766.4 347.7 780.8 318.8 780.8 318.8 795.3 246.5 867.6 246.5 882.1 289.9 882.1 318.8 853.1 362.2 853.1 347.7 867.6 318.8 867.6 304.3 882.1 333.2 882.1 347.7 896.5 420 896.5 405.5 911 376.6 911 420 954.4 405.5 954.4 376.6 925.4 260.9 925.4 260.9 939.9 275.4 954.4 275.4 968.8 304.3 968.8 289.9 983.3 275.4 983.3 275.4 997.7 289.9 1012.2 318.8 1012.2 304.3 1026.7 289.9 1026.7 275.4 1012.2 275.4 1070 304.3 1070 289.9 1084.5 246.5 1084.5 232 1099 232 1127.9 275.4 1127.9 333.2 1185.7 347.7 1185.7 376.6 1214.6 362.2 1214.6 347.7 1200.2 333.2 1200.2 304.3 1200.2 275.4 1171.3 246.5 1171.3 232 1185.7 232 1200.2 246.5 1200.2 275.4 1229.1 260.9 1229.1 246.5 1214.6 232 1214.6 232 1229.1 188.6 1272.5 232 1272.5 217.6 1286.9 188.6 1286.9 174.2 1301.4 174.2 1330.3 188.6 1344.8 188.6 1359.2 174.2 1373.7 130.8 1417.1 130.8 1489.4 116.3 1503.8 116.3 1532.8 29.6 1619.5 29.6 1662.9 73 1706.3 73 1749.7 101.9 1749.7 174.2 1822 246.5 1822 289.9 1865.3 362.2 1865.3 405.5 1908.7 477.8 1908.7 767 1619.5 940.6 1619.5 1114.1 1446 1215.3 1446 1302.1 1359.2 1200.8 1258 1200.8 1229.1 1114.1 1142.3 1114.1 1113.4 1027.3 1026.7 1027.3 997.7 955 925.4 1186.4 925.4 1287.6 824.2 1359.9 824.2 1475.6 708.5 1547.9 708.5 1634.7 621.8 1692.5 621.8 1822.6 491.6 1822.6 462.7"></polygon>
                        <g transform="translate(44.000000, 0.000000)">
                            <polygon points="1084.5 1402.6 1055.6 1388.2 968.9 1388.2 954.4 1373.7 954.4 1359.2 925.5 1330.3 911 1330.3 853.2 1272.5 824.3 1272.5 795.3 1229.1 795.3 1200.2 809.8 1185.7 882.1 1185.7 882.1 1156.8 824.3 1099 795.3 1099 780.9 1113.4 766.4 1113.4 752 1099 752 1070 737.5 1055.6 737.5 1026.7 723 1012.2 694.1 1026.7 694.1 968.8 650.7 925.4 650.7 867.6 578.4 795.3 578.4 780.8 621.8 737.5 621.8 708.5 607.4 694.1 564 694.1 535.1 665.2 491.7 665.2 477.2 679.6 448.3 679.6 491.7 636.2 491.7 607.3 462.8 578.4 433.8 578.4 404.9 607.3 376 607.3 361.5 621.8 361.5 650.7 347.1 650.7 318.2 621.8 289.2 621.8 289.2 650.7 274.8 665.2 274.8 708.5 289.2 723 318.2 723 332.6 737.5 332.6 780.8 318.2 795.3 289.2 795.3 216.9 867.6 245.9 867.6 274.8 838.7 303.7 838.7 318.2 824.2 361.5 824.2 376 809.8 376 795.3 404.9 766.4 462.8 766.4 491.7 795.3 491.7 809.8 520.6 838.7 448.3 838.7 433.8 824.2 404.9 824.2 390.5 838.7 419.4 838.7 448.3 867.6 448.3 882.1 433.8 896.5 404.9 867.6 347.1 867.6 332.6 882.1 376 882.1 390.5 896.5 390.5 925.4 361.5 925.4 390.5 954.4 390.5 968.8 361.5 968.8 332.6 939.9 231.4 939.9 245.9 954.4 274.8 954.4 274.8 968.8 245.9 997.7 289.2 997.7 289.2 1012.2 260.3 1041.1 245.9 1041.1 245.9 1055.6 274.8 1055.6 274.8 1070 245.9 1099 216.9 1099 202.5 1113.4 231.4 1113.4 289.2 1171.3 303.7 1171.3 347.1 1214.6 347.1 1229.1 318.2 1229.1 303.7 1214.6 260.3 1214.6 231.4 1185.7 202.5 1185.7 245.9 1229.1 245.9 1243.6 216.9 1243.6 202.5 1229.1 173.6 1258 202.5 1258 202.5 1272.5 173.6 1301.4 144.6 1301.4 144.6 1330.3 159.1 1344.8 159.1 1359.2 144.6 1373.7 144.6 1417.1 115.7 1446 115.7 1503.8 0 1619.5 0 1677.4 29 1706.3 29 1749.7 57.9 1749.7 130.2 1822 202.5 1822 245.9 1865.3 289.2 1865.3 303.7 1850.9 347.1 1850.9 361.5 1836.4 404.9 1836.4 433.8 1807.5 477.2 1807.5 506.1 1836.4 723 1619.5 896.6 1619.5 1070.1 1446 1113.5 1446 1084.5 1417.1"></polygon>
                            <polygon points="1272.5 607.3 1301.5 636.2 1330.4 636.2 1344.8 621.8 1344.8 549.5 1315.9 520.5 1315.9 462.7 1272.5 419.3 1272.5 390.4 1171.3 289.2 1099 289.2 1084.5 274.7 1012.2 347 968.9 347 795.3 520.5 621.8 520.5 621.8 535 650.7 563.9 650.7 592.9 694.1 636.2 838.7 636.2 867.6 607.3 911 607.3 939.9 578.4 939.9 549.5 968.9 520.5 968.9 491.6 983.3 477.2 983.3 448.2 1041.2 506.1 1084.5 506.1 1127.9 549.5 1171.3 549.5 1229.2 607.3"></polygon>
                            <polygon points="1359.3 694.1 1344.8 708.5 1315.9 708.5 1301.5 723 1272.5 723 1258.1 708.5 1229.2 708.5 1214.7 723 1214.7 751.9 1200.2 766.4 1200.2 824.2 1185.8 838.7 1185.8 882.1 1242.8 824.2 1315.9 824.2 1417.1 723 1388.2 694.1"></polygon>
                            <polygon points="1720.8 404.9 1749.7 375.9 1706.3 332.6 1634 404.9 1590.7 361.5 1634 318.1 1547.3 231.3 1547.3 173.5 1489.4 115.7 1489.4 43.4 1446.1 0 1330.4 115.7 1287 115.7 1258.1 144.6 1287 144.6 1315.9 173.5 1315.9 202.4 1373.8 260.3 1373.8 289.2 1431.6 347 1431.6 390.4 1475 433.8 1475 491.6 1431.6 535 1431.6 592.9 1475 636.2 1475 665.2 1518.4 665.2 1532.8 679.6 1590.7 621.8 1648.5 621.8 1778.6 491.6 1778.6 462.7"></polygon>
                            <polygon points="274.8 520.5 289.2 535 303.7 535 318.2 549.5 332.6 549.5 332.6 563.9 347.1 578.4 376 578.4 376 549.5 361.5 535 361.5 520.5 376 520.5 404.9 549.5 448.3 549.5 462.8 535 477.2 535 491.7 520.5 491.7 491.6 462.8 462.7 477.2 448.2 462.8 433.8 390.5 433.8 390.5 419.3 347.1 375.9 303.7 375.9 274.8 404.9 274.8 433.8 260.3 448.2 260.3 477.2 274.8 491.6"></polygon>
                        </g>
                        <g transform="translate(58.000000, 289.000000)">
                            <polygon points="419.8 405.1 405.4 419.5 390.9 419.5 419.8 390.6 419.8 376.2 405.4 390.6 390.9 390.6 390.9 376.1 419.8 347.2 448.8 347.2 434.3 332.8 419.8 332.8 434.3 318.3 419.8 318.3 405.4 332.8 376.5 332.8 362 347.2 362 376.2 333.1 376.2 304.2 347.2 289.7 347.2 289.7 376.2 275.2 390.6 275.2 405.1 289.7 419.5 304.2 419.5 304.2 405.1 318.6 405.1 333.1 419.5 347.5 419.5 347.5 434 333.1 448.5 333.1 462.9 347.5 462.9 333.1 477.4 333.1 491.8 347.5 491.8 376.5 462.9 376.5 448.5 405.4 448.5 419.8 434 448.8 434 463.2 448.5 463.2 434 448.8 419.5 463.2 405.1"></polygon>
                            <polygon points="492.1 462.9 506.6 477.4 506.6 506.3 521.1 491.8 521.1 477.4 535.5 477.4 521.1 462.9 535.5 448.5 506.6 419.5 506.6 434 492.1 434 477.7 448.5 463.2 448.5 477.7 462.9"></polygon>
                            <polygon points="593.4 622 578.9 622 578.9 650.9 550 622 564.4 607.5 550 593.1 521.1 593.1 492.1 622 492.1 650.9 506.6 665.4 521.1 665.4 521.1 679.8 506.6 694.3 506.6 708.7 492.1 723.2 506.6 737.7 521.1 723.2 550 723.2 578.9 694.3 593.4 694.3 622.3 665.4 607.8 650.9 607.8 636.4"></polygon>
                            <path d="M940.4,1157 L925.9,1171.5 L911.4,1171.5 L897,1157 L882.5,1157 L853.6,1128.1 L839.1,1128.1 L810.2,1099.2 L810.2,1084.7 L824.7,1084.7 L839.2,1099.2 L868.1,1099.2 L824.7,1055.8 L810.2,1055.8 L795.7,1041.3 L752.3,1041.3 L737.8,1055.8 L737.8,1070.3 L723.3,1070.3 L708.8,1055.8 L694.3,1055.8 L679.8,1041.3 L679.8,1026.8 L694.3,1026.8 L679.8,1012.3 L679.8,997.8 L665.3,983.3 L650.8,983.3 L636.3,997.8 L621.8,997.8 L607.3,1012.3 L607.3,983.4 L621.8,968.9 L621.8,940 L636.3,925.5 L636.3,896.6 L650.8,882.1 L665.3,896.6 L665.3,867.7 L650.8,853.2 L650.8,824.3 L636.3,824.3 L621.8,809.8 L621.8,781 L607.3,766.5 L607.3,752 L578.4,752 L550,781 L550,867.8 L535.5,867.8 L521,853.3 L521,838.8 L506.5,824.3 L477.6,824.3 L448.7,795.4 L434.2,795.4 L434.2,809.9 L477.6,853.3 L477.6,853.3 L477.6,896.7 L506.5,925.6 L521,925.6 L535.5,940.1 L535.5,969 L521,969 L506.5,954.5 L492,954.5 L477.5,969 L463,969 L463,983.5 L477.5,998 L477.5,1012.5 L506.4,1041.4 L463,1041.4 L434.1,1012.5 L405.2,1012.5 L390.7,1027 L362,1027 L347.5,1012.5 L347.5,998 L289.7,940.2 L246.3,940.2 L246.3,969.1 L202.9,969.1 L202.9,983.6 L159.5,1027 L145,1027 L145,1041.5 L159.5,1056 L159.5,1070.5 L145,1085 L145,1128.4 L116.1,1157.3 L116.1,1215.1 L0.4,1330.8 L0.4,1359.7 L14.9,1374.2 L43.8,1345.3 L58.3,1345.3 L116.1,1287.5 L116.1,1273 L145,1273 L246.2,1374.2 L246.2,1388.7 L260.7,1403.2 L260.7,1417.7 L275.2,1432.2 L275.2,1446.7 L289.7,1461.2 L318.6,1461.2 L318.6,1475.7 L304.1,1490.2 L289.6,1490.2 L289.6,1504.7 L260.7,1504.7 L246.2,1490.2 L246.2,1461.3 L217.3,1432.4 L217.3,1417.9 L130.5,1331.1 L101.6,1331.1 L72.7,1360 L58.2,1360 L43.7,1374.5 L29.2,1374.5 L58.1,1403.4 L87,1403.4 L101.5,1417.9 L101.5,1432.4 L87,1432.4 L72.5,1417.9 L58,1417.9 L29.1,1389 L15,1389 L29.5,1403.5 L29.5,1446.9 L116.3,1533.7 L188.6,1533.7 L232,1577.1 L260.9,1548.2 L275.4,1548.2 L289.9,1533.7 L318.8,1533.7 L362.2,1490.3 L362.2,1461.4 L391.1,1432.5 L434.5,1432.5 L477.9,1403.6 L535.7,1403.6 L550.2,1418.1 L550.2,1432.6 L564.7,1447.1 L593.6,1447.1 L709,1330.5 L882.5,1330.5 L911.4,1301.6 L911.4,1272.7 L896.9,1258.2 L925.8,1229.3 L940.3,1243.8 L954.8,1229.3 L925.9,1200.4 L954.8,1200.4 L969.3,1214.9 L969.3,1243.8 L1012.7,1200.4 L969.3,1157 L940.4,1157 L940.4,1157 Z M665.7,1200.4 L651.2,1214.9 L665.7,1229.4 L665.7,1258.3 L651.2,1272.8 L622.3,1272.8 L607.8,1287.3 L593.3,1287.3 L578.8,1272.8 L564.3,1272.8 L549.8,1287.3 L520.9,1287.3 L506.4,1272.8 L491.9,1272.8 L477.4,1258.3 L462.9,1258.3 L434,1229.4 L434,1214.9 L434,1200.4 L419.5,1185.9 L434,1171.4 L434,1157 L448.5,1142.5 L463,1142.5 L477.5,1128 L492,1128 L506.5,1113.5 L521,1113.5 L535.5,1128 L550,1128 L564.5,1113.5 L593.4,1113.5 L622.3,1142.4 L636.8,1142.4 L665.7,1171.3 L665.7,1200.4 L665.7,1200.4 Z"></path>
                            <polygon points="275.2 217.1 289.7 231.5 304.2 231.5 318.6 246 318.6 217.1 318.6 202.6 362 202.6 376.5 188.2 405.4 188.2 419.8 202.6 448.8 202.6 405.4 159.2 362 159.2 362 144.8 333.1 115.9 289.7 115.9 275.2 130.3 275.2 159.2 260.8 173.7 260.8 188.2 275.2 202.6"></polygon>
                            <polygon points="275.2 867.8 289.7 867.8 347.5 925.6 405.4 925.6 419.8 940.1 463.2 940.1 463.2 925.6 448.8 911.2 448.8 867.8 434.3 853.3 434.3 838.9 419.8 824.4 405.4 824.4 405.4 853.3 419.8 867.8 419.8 882.3 405.4 867.8 376.5 867.8 347.5 838.9 347.5 810 362 810 362 795.5 362 766.6 347.5 752.1 347.5 723.2 333.1 708.7 333.1 679.8 318.6 665.4 275.2 665.4 275.2 679.8 260.8 694.3 275.2 694.3 289.7 708.7 289.7 723.2 275.2 737.7 260.8 752.1 275.2 766.6 275.2 781 246.3 810 231.9 824.4 246.3 838.9"></polygon>
                            <polygon points="521.1 520.8 506.6 520.8 550 564.1 593.4 564.1 578.9 549.7 564.4 549.7 550 535.2 535.5 535.2"></polygon>
                            <polygon points="463.2 737.7 448.8 752.1 463.2 752.1 477.7 766.6 506.6 766.6 477.7 737.7"></polygon>
                            <polygon points="405.4 781 390.9 781 390.9 795.5 405.4 810 419.8 810 419.8 795.5 419.8 781 405.4 766.6"></polygon>
                            <polygon points="477.7 1431.7 477.7 1446.2 506.6 1475.1 521.1 1475.1 506.6 1460.7 535.5 1460.7 535.5 1446.2 521.1 1431.7"></polygon>
                            <polygon points="1273 274.9 1273 246 1215.2 188.2 1215.2 173.7 1186.2 144.8 1186.2 130.3 1157.3 101.4 1157.3 72.5 1113.9 29.1 1085 29.1 1056.1 0.2 998.2 58 954.9 58 969.3 72.5 969.3 86.9 1012.7 130.3 1027.2 130.3 1070.5 173.7 1085 173.7 1128.4 217.1 1157.3 217.1 1186.2 246 1200.7 246 1229.6 274.9"></polygon>
                            <polygon points="680.1 303.9 694.6 318.3 810.3 318.3 824.7 303.9 839.2 303.9 868.1 274.9 868.1 246 882.6 231.5 882.6 202.6 897 188.2 897 115.9 781.3 231.5 636.7 231.5 680.1 274.9"></polygon>
                            <polygon points="1706.8 115.9 1721.3 101.4 1692.3 101.4 1692.3 144.8 1677.9 159.2 1706.8 188.2 1677.9 188.2 1663.4 173.7 1620 173.7 1591.1 202.6 1620 202.6 1620 231.5 1605.6 246 1562.2 246 1533.3 274.9 1576.7 274.9 1591.1 289.4 1620 289.4 1649 318.3 1764.6 202.6 1764.6 173.7"></polygon>
                            <polygon points="1576.7 303.9 1562.2 303.9 1547.7 289.4 1518.8 289.4 1504.4 303.9 1518.8 318.3 1533.3 318.3 1518.8 332.8 1504.4 332.8 1533.3 361.7 1547.7 361.7 1576.7 332.8 1591.1 332.8 1576.7 318.3"></polygon>
                            <polygon points="1330.8 448.5 1316.4 462.9 1287.5 462.9 1273 477.4 1244.1 477.4 1229.6 491.8 1229.6 506.3 1215.2 520.8 1215.2 549.7 1228.8 535.2 1301.9 535.2 1374.2 462.9 1359.8 448.5"></polygon>
                        </g>
                        <g transform="translate(73.000000, 419.000000)">
                            <polygon points="318.1 260.6 332.5 275.1 347 275.1 361.5 260.6 361.5 246.2 347 260.6"></polygon>
                            <polygon points="289.2 246.2 274.7 260.6 274.7 275.1 289.2 260.6 303.6 260.6 303.6 246.2 289.2 231.7"></polygon>
                            <polygon points="289.2 58.2 347 58.2 361.5 43.7 332.5 43.7 318.1 29.2 318.1 14.8 303.6 0.3 289.2 0.3 274.7 14.8 274.7 29.2 260.2 43.7 260.2 58.2 289.2 87.1"></polygon>
                            <polygon points="289.2 636.6 303.6 636.6 303.6 622.1 289.2 607.7 289.2 593.2 260.2 622.1 289.2 651"></polygon>
                            <polygon points="274.7 723.3 318.1 766.7 332.5 766.7 347 781.2 361.5 781.2 361.5 766.7 318.1 723.3 303.6 723.3 303.6 694.4 289.2 680 289.2 665.5 274.7 665.5 274.7 651 231.3 694.4 260.2 723.3"></polygon>
                            <polygon points="289.2 983.6 318.1 983.6 332.5 998.1 390.4 998.1 390.4 983.6 375.9 969.2 361.5 969.2 347 954.7 332.5 954.7 318.1 940.2 303.6 940.2 303.6 954.7 274.7 954.7 289.2 940.2 289.2 925.8 303.6 911.3 303.6 882.4 289.2 867.9 289.2 839 274.7 824.6 245.8 824.6 245.8 839 231.3 853.5 202.4 853.5 144.6 911.3 159 925.8 159 940.2 144.6 954.7 144.6 998.1 115.6 1027 115.6 1084.8 0 1200.5 0 1229.4 28.9 1200.5 43.3 1200.5 72.3 1171.6 72.3 1142.7 101.2 1113.8 101.2 1128.2 144.6 1128.2 245.8 1229.4 245.8 1258.4 289.2 1258.4 318.1 1287.3 390.4 1287.3 375.9 1272.8 375.9 1229.4 332.5 1186.1 332.5 1142.7 289.2 1099.3 289.2 1027 274.7 1012.5 274.7 998.1"></polygon>
                            <polygon points="216.9 1345.1 202.4 1345.1 187.9 1359.6 187.9 1330.7 159 1301.7 159 1330.7 130.1 1301.7 159 1272.8 159 1258.4 144.6 1243.9 130.1 1258.4 115.6 1258.4 101.2 1272.8 101.2 1301.7 115.6 1301.7 115.6 1316.2 144.6 1345.1 115.6 1345.1 101.2 1330.7 101.2 1374 115.6 1388.5 101.2 1388.5 86.7 1374 86.7 1345.1 72.3 1359.6 57.8 1345.1 57.8 1330.7 43.3 1316.2 43.3 1301.7 28.9 1287.3 28.9 1330.7 101.2 1403 173.5 1403 202.4 1431.9 216.9 1431.9 231.3 1417.4 231.3 1388.5 216.9 1374"></polygon>
                            <polygon points="115.6 1243.9 130.1 1229.4 115.6 1215 86.7 1215 57.8 1243.9 43.3 1243.9 57.8 1258.4 86.7 1258.4 101.2 1243.9"></polygon>
                            <polygon points="72.3 1330.7 86.7 1330.7 101.2 1316.2 57.8 1316.2"></polygon>
                            <polygon points="563.9 781.2 578.4 795.6 592.8 795.6 578.4 781.2"></polygon>
                            <polygon points="795.3 1142.7 795.3 1128.2 780.8 1142.7"></polygon>
                            <polygon points="563.9 853.5 578.4 867.9 578.4 839 563.9 824.6 549.4 839 549.4 853.5 549.4 911.3 535 925.8 535 940.2 563.9 969.2 563.9 954.7 549.4 940.2 549.4 925.8 563.9 911.3 563.9 925.8 592.8 954.7 592.8 925.8 563.9 896.9"></polygon>
                            <polygon points="694 998.1 694 983.6 665.1 983.6 650.7 969.2 636.2 969.2 607.3 940.2 607.3 969.2 621.7 983.6 650.7 983.6 665.1 998.1 679.6 998.1 694 1012.5 694 1027 708.5 1027 708.5 1055.9 723 1070.4 723 1012.5 708.5 998.1"></polygon>
                            <polygon points="535 867.9 520.5 882.4 520.5 925.8 535 911.3"></polygon>
                            <polygon points="780.8 1070.4 780.8 1055.9 766.3 1070.4 766.3 1084.8 751.9 1099.3 766.3 1099.3 780.8 1099.3 766.3 1113.8 780.8 1113.8 795.3 1099.3 795.3 1084.8"></polygon>
                        </g>
                        <g transform="translate(101.000000, 1099.000000)">
                            <polygon points="246.7 520.5 246.7 506.1 217.8 477.1 217.8 448.2 188.9 419.3 188.9 404.8 203.3 390.4 203.3 347 188.9 332.5 188.9 289.2 203.3 274.7 203.3 260.2 217.8 245.8 232.2 245.8 246.7 231.3 246.7 202.4 217.8 173.5 203.3 187.9 174.4 187.9 145.5 216.9 131 231.3 145.5 245.8 145.5 260.2 131 274.7 131 318.1 102.1 347 102.1 404.8 87.6 419.3 87.6 433.8 116.6 433.8 232.2 549.4 232.2 563.9 261.2 563.9 275.6 578.4 290.1 578.4 290.1 563.9"></polygon>
                            <polygon points="246.7 28.9 246.7 14.4 232.2 14.4 232.2 0 217.8 14.4 232.2 28.9"></polygon>
                            <polygon points="188.9 708.5 174.4 694 159.9 694 145.5 679.6 87.6 679.6 87.6 694 102.1 708.5 87.6 723 145.5 723 159.9 737.4 174.4 737.4 159.9 723 159.9 708.5"></polygon>
                            <polygon points="44.3 563.9 58.7 563.9 73.2 549.4 58.7 549.4"></polygon>
                            <polygon points="29.8 491.6 29.8 477.1 15.3 491.6"></polygon>
                            <polygon points="261.2 28.9 246.7 28.9 261.2 43.3"></polygon>
                            <polygon points="15.3 506.1 15.3 491.6 0.9 506.1"></polygon>
                        </g>
                        <g transform="translate(203.000000, 1301.000000)">
                            <polygon points="86.9 260.7 57.9 231.8 57.9 217.3 43.5 202.8 43.5 173.9 57.9 159.5 57.9 87.2 72.4 72.7 72.4 43.8 57.9 29.3 57.9 29.3 72.4 14.9 86.9 14.9 101.3 0.4 72.4 0.4 43.5 29.3 57.9 43.8 57.9 58.2 43.5 72.7 43.5 116.1 14.6 145 14.6 202.8 0.1 217.3 14.6 217.3 101.3 304.1 101.3 289.6 86.9 275.1"></polygon>
                            <polygon points="0.1 492 14.6 506.5 29 506.5 14.6 492"></polygon>
                        </g>
                    </g>
                    <polygon id="Shape" stroke="#FFFFFF" stroke-width="4.5544" points="1099 925.4 1171.3 997.7 1171.3 1026.7 1258.1 1113.4 1258.1 1142.3 1344.8 1229.1 1344.8 1258 1446.1 1359.2 1359.3 1446 1258.1 1446 1084.6 1619.5 911 1619.5 621.8 1908.7 549.5 1908.7 506.2 1865.3 433.9 1865.3 390.5 1822 318.2 1822 260.3 1764.1 188 1764.1 188 1720.7 173.6 1706.3 144.7 1706.3 144.7 1590.6 217 1518.3 217 1388.2 260.3 1344.8 260.3 1243.6 318.2 1185.7 318.2 954.4 347.1 925.4 347.1 853.1 390.5 809.8 390.5 780.8 376 766.4 390.5 751.9 390.5 636.2 404.9 621.8 404.9 506.1 390.5 491.6 390.5 390.4 462.8 318.1 564 318.1 650.8 404.9 679.7 404.9 795.4 520.5 983.3 520.5 1156.9 347 1200.2 347 1315.9 231.3 1359.3 231.3 1475 115.7 1518.4 115.7 1634.1 0 1677.4 43.4 1677.4 115.7 1735.3 173.5 1735.3 231.3 1822 318.1 1778.7 361.5 1822 404.9 1894.3 332.6 1937.7 375.9 1908.8 404.9 1966.6 462.7 1966.6 491.6 1836.5 621.8 1778.7 621.8 1691.9 708.5 1619.6 708.5 1503.9 824.2 1431.6 824.2 1330.4 925.4"></polygon>
                    <g transform="translate(0.000000, 144.000000)" id="Shape" fill-rule="nonzero" fill="#FFFFFF">
                        <g transform="translate(289.000000, 607.000000)">
                            <polygon points="58.1 102.1 101.5 58.8 101.5 29.8 72.6 0.9 58.1 0.9 14.7 44.3 14.7 58.8 0.3 73.2 0.3 217.8 14.7 232.3 29.2 232.3 58.1 203.4 58.1 232.3 72.6 246.7 72.6 275.7 87 261.2 87 203.4 58.1 174.4"></polygon>
                            <polygon points="43.6 246.7 43.6 232.3 14.7 261.2 0.3 275.7 0.3 304.6 14.7 319 14.7 362.4 29.2 348 29.2 333.5 58.1 304.6 58.1 290.1 29.2 261.2"></polygon>
                        </g>
                        <polygon points="159.1 1678 188 1649 188 1620.1 188 1576.7 173.6 1562.3 144.7 1562.3 115.7 1591.2 101.3 1591.2 14.5 1678 14.5 1706.9 0.1 1721.3 0.1 1735.8 144.7 1735.8 159.1 1721.3"></polygon>
                        <polygon points="795.4 1330.9 780.9 1316.5 766.4 1316.5 752 1302 708.6 1302 694.1 1316.5 679.7 1316.5 665.2 1330.9 665.2 1345.4 679.7 1330.9 752 1330.9 752 1316.5 766.4 1330.9"></polygon>
                        <polygon points="1012.3 622.4 983.3 622.4 997.8 636.8 997.8 651.3 968.9 651.3 983.3 665.8 1012.3 665.8 1026.7 651.3 1026.7 636.8"></polygon>
                    </g>
                </g>
            </g>
        </g>
    </g>
</svg>